<svg id="Layer_1" data-name="Layer 1" xmlns="http://www.w3.org/2000/svg" viewBox="0 0 4799.81 1047.29"><defs><style>.cls-1{fill:#add8e6;}.cls-2{fill:#fff;}.cls-3{fill:#182e49;}.cls-4{fill:#fcfcfc;}.cls-5{fill:#373737;}.cls-6{fill:#f90;}</style></defs><path class="cls-1" d="M807.11,1015c-29,10.26-57.19,6.52-66.11,5-27-4.49-31.79-13.92-62-23-21.56-6.48-41.33-7.08-80-8-48.81-1.16-73.21-1.75-97,3-65.46,13.06-83.79,45-121.34,34.48-15.59-4.36-23.74-13-45-35C237,889.43,244.41,902.18,233,887c-19.71-26.21-90.93-120.91-73.47-235.52,17.38-114,113-185.07,120.47-190.48,67.88-49,129-44.89,156-105,13.28-29.57,17-71.85,37.69-74.84,7.23-1,12,3.36,21.31,8.84,0,0,36.59,21.61,84,20,16.13-.55,52.53-5.14,86-19,4.57-1.89,14-6,22-2,13,6.51,12.83,29.87,13.53,37.48C705.63,381.8,832.77,408.8,904,465c33.57,26.49,74.66,75.19,95.53,172.48,16.66,125.87-21,192.9-39,219-18.17,26.29-49.35,58.66-70.87,81C847.47,981.29,837.78,1004.13,807.11,1015Z" transform="translate(-140.95 -59.37)"/><path class="cls-2" d="M988.33,550.89c-42.48-90.14-109.78-128.83-169.15-162.95-44.45-25.55-82.84-47.62-101.52-86.25-7.64-15.79-11.82-47-10.65-79.54,1.37-37.63,10.92-55.27,16.49-62.44,11.86-15.26,26.59-24,42.59-25.24,14.8-1.13,27.4,2.83,36.45,11.46,7.29,6.95,11.57,15.5,12.39,24.73,1.1,12.42-4,24.78-13.26,32.26-8.49,6.85-21.13,9.78-33,7.66-9.12-1.63-16.42-6.05-20-12.12a24.87,24.87,0,0,1-.72-23,26,26,0,0,0,41.56,20.82l.13-.09a27.72,27.72,0,0,0,4.95-4.42c7.33-8.3,6.82-18.59,6.49-21.54a30,30,0,0,0-11.79-20.38c-6.41-4.76-15.13-6.69-24.54-5.44a48,48,0,0,0-24,10.51c-14.18,12-19.35,32.65-12.57,50.25,4.78,12.4,14.93,21.54,30.17,27.16A62.92,62.92,0,0,0,780,236c20.37,0,42.38-8.95,54.79-28.48,7.85-12.34,10.6-27.13,8-42.76a77.66,77.66,0,0,0-16.11-35.58c-13.41-16.07-34.68-25.18-60-25.62-23.4-.42-47.07,6.62-64.92,19.29a88.5,88.5,0,0,0-23.89,25.41c-.09.15-.18.31-.28.46-.72,1.24-1.42,2.49-2.11,3.76A143,143,0,0,0,668.24,168c-6.85,18.32-8.74,36.67-10,49.3-.58,5.64-.88,11.2-.93,16.66a253.41,253.41,0,0,0,8.23,56.52h0c10.72,35.94,29.27,62.39,38.86,72.54,27.91,29.52,64,49.21,98.8,68.26,8.81,4.81,17.13,9.36,25.41,14.1C880,471.63,923,515.17,949.81,568c26.6,52.51,36,111.84,26.41,167.07-9.32,55-34.22,110.28-72,159.87C871.43,938,829.41,976.4,788.78,1013.51l-10.21,9.33c-11-6-86.77-45.62-195.74-45.62h-2.89c-110.52-.71-187.58,39.49-198.66,45.61l-10.21-9.33C330.44,976.4,288.42,938,255.62,895c-37.78-49.59-62.67-104.87-72-159.88-9.56-55.27-.18-114.6,26.38-167.12,26.77-52.84,69.84-96.38,121.37-122.66,8.19-4.7,16.51-9.25,25.31-14.06,34.86-19,70.9-38.74,98.81-68.27,11.11-11.75,34.23-45.37,43.29-90.29a203.6,203.6,0,0,0-13.94-119.51A89.77,89.77,0,0,0,458,122.84c-17.85-12.67-41.53-19.7-64.92-19.29-25.3.44-46.58,9.55-59.92,25.65a77.69,77.69,0,0,0-16.1,35.58c-2.64,15.63.11,30.42,8,42.76,17.06,26.84,52.23,33.69,76.39,24.8,15.23-5.61,25.38-14.75,30.16-27.15,6.78-17.6,1.61-38.27-12.58-50.25a47.9,47.9,0,0,0-23.94-10.51c-9.42-1.25-18.13.68-24.54,5.44a30,30,0,0,0-11.79,20.38c-.33,3-.84,13.24,6.48,21.54a28,28,0,0,0,5,4.41l.13.1A26,26,0,0,0,412,175.48a24.84,24.84,0,0,1-.71,23c-3.63,6.07-10.94,10.49-20,12.12-11.86,2.11-24.49-.81-33-7.66C349,195.46,343.89,183.1,345,170.68c.81-9.23,5.1-17.78,12.38-24.73,9.06-8.63,21.67-12.59,36.47-11.45,16,1.24,30.71,10,42.58,25.23,5.57,7.17,15.12,24.81,16.49,62.44,1.17,32.53-3,63.75-10.65,79.54-18.68,38.63-57.07,60.7-101.52,86.25-59.37,34.12-126.67,72.81-169.15,163-28.67,60.4-37.27,123.36-25.59,187,11,60.49,39.75,119.19,85.35,174.5,39.58,47.82,87.8,87,134.43,124.9l6,4.85a10.67,10.67,0,0,0,7.16,2.46,14.66,14.66,0,0,0,2-.09c15.19-1.21,29.52-2.85,44.07-4.67,24.08,7.45,84.37,12.73,154.93,12.73s130.85-5.28,154.93-12.73c14.56,1.82,28.88,3.46,44.08,4.67,2.88.22,6,.23,9.18-2.38l6-4.84c46.63-37.9,94.85-77.08,134.43-124.9h0c45.6-55.29,74.33-114,85.38-174.47C1025.53,674.32,1016.93,611.36,988.33,550.89ZM710.66,1018.42c-.17,3.5-4.12,5.4-15.1,7.25-7.64,1.29-18.35,2.45-31.82,3.46-24.8,1.85-56.14,2.94-84.07,2.94h-1.15c-27.63,0-58.75-1.17-83.25-3-13.22-1-23.72-2.15-31.21-3.42-10.81-1.84-14.7-3.73-14.87-7.2a4.11,4.11,0,0,1,1.24-3.12c7.41-7.8,76.32-14.16,128.42-14.23h.85c52.83,0,122.16,6.3,129.71,14.21A4.17,4.17,0,0,1,710.66,1018.42Z" transform="translate(-140.95 -59.37)"/><circle class="cls-2" cx="233.99" cy="1000.01" r="43.28"/><path class="cls-2" d="M374.94,1105.66a46.28,46.28,0,1,1,46.28-46.28A46.28,46.28,0,0,1,374.94,1105.66Zm0-86.56a40.28,40.28,0,1,0,40.28,40.28h0a40.34,40.34,0,0,0-40.28-40.28Z" transform="translate(-140.95 -59.37)"/><circle class="cls-2" cx="643.96" cy="1000.01" r="43.28"/><path class="cls-2" d="M784.91,1106.66a47.28,47.28,0,1,1,47.28-47.28A47.28,47.28,0,0,1,784.91,1106.66Zm0-86.56a39.28,39.28,0,1,0,39.28,39.28h0a39.32,39.32,0,0,0-39.28-39.28Z" transform="translate(-140.95 -59.37)"/><path class="cls-2" d="M425.41,643.64s72.57-7.26,91.7-34.43Z" transform="translate(-140.95 -59.37)"/><path class="cls-2" d="M736.13,643.64s-72.57-7.26-91.7-34.43Z" transform="translate(-140.95 -59.37)"/><path class="cls-2" d="M580.07,848.82h-.3c-13.37-.28-21-20.06-22.34-24l11.33-4c2.58,7.34,8.07,15.92,11.26,16,.21,0,4.72-.1,11.14-16.23L602.31,825C595.94,841,588.67,848.82,580.07,848.82Z" transform="translate(-140.95 -59.37)"/><path class="cls-3" d="M783.12,845.82A487,487,0,0,0,741.37,741c-14.94-27.56-29.39-55.31-48.7-80.14-7.46-9.6-15.27-18.92-25.08-26.07-8.39-6.94-19.34-15.15-27.91-18.6q3.09-3.86,6.17-7.7c27.38,18.87,57.57,26.37,87.67,34,4.89,1.24,9.65-.1,10.84-5.79s-2.78-8.07-7.79-9.35c-9.4-2.41-18.83-4.75-28.06-7.69-17.09-5.44-34.42-10.5-49-21.69-8-6.17-16-7.13-23.92-.85A92.09,92.09,0,0,0,619,614.29c-15.28,20.69-25.34,44.06-33.57,68.29-1.66,4.87-3.76,9.58-5.31,13.49-8.4-19.71-16.17-39.57-25.28-58.79-7-14.7-15.7-28.61-28.75-39-9.19-7.29-17.19-6.92-26.39,0-3.85,2.9-7.91,6-12.37,7.54-20.76,7.32-41.73,14.08-62.55,21.23a28,28,0,0,0-9.19,5.14c-1,.87-.83,4.4.09,6,3.87,6.52,9.92,4.77,15.59,3.22,28.51-7.81,57.26-15,82.14-32.61.53,0,7.18.06,10.29,4.93-9,3.25-21.06,12.36-29.92,19.75h-.06c-9.8,6.8-19,18.35-19,18.35-27.38,30.36-45.05,67-63.79,102.78C395.5,784.05,384.34,815.5,376,847.76c-6.14,23.79-11,47.84-8.08,72.7,3.26,28,19.17,40.52,46.76,36.23A73.41,73.41,0,0,0,433.41,951c26.76-12,48.93-30.65,69.4-51.14,16.95-17,32.69-35.15,50.25-54.18C559.9,853,567.43,860.87,574.7,869c3.54,3.93,6.52,4.13,10.1.13,7.25-8.12,14.67-16.08,22.52-24.66,3,3.68,4.46,5.61,6.1,7.33,20,21.16,39.24,43.08,60.22,63.21,18.25,17.5,39,32.18,63.48,40.23,19.32,6.34,36.89,2.93,45.58-10.34a59.8,59.8,0,0,0,8.6-22.8C795.43,896,789.89,870.72,783.12,845.82ZM434.67,932.56c-8.16,4.76-17.81,7.45-27.12,9.63s-15.27-1.88-18.75-10.87c-6-15.54-4.48-31.61-2.23-47.47a319.81,319.81,0,0,1,25.07-87.1c20.83-46,41.35-92.44,73.93-131.89a150.19,150.19,0,0,1,22-21c5.84-4.69,8.45-3.3,11.66,3.38,4.94,10.31,1.58,20-2.4,29.43s-8.77,18.92-12.66,28.58c-12.69,31.49-7.7,61.5,9,89.93,7.69,13.12,16.92,25.33,26,38.77C509.35,872,477.11,907.77,434.67,932.56Zm115.18-115c-31.9-27.27-43.09-76.17-26.13-114.43,3.63-8.19,7.34-16.35,10.84-24.59,4.85-11.45,6.59-23.14,1.79-35.18l2.12-1.1c3.65,7.94,7.56,15.77,10.93,23.83,10.6,25.37,18,51.54,20.55,79.09,2.51,26.87-4,50.9-20.1,72.4Zm33.52,30.18c-2.64,2.3-4.55,2.4-7.27-.27-5-4.9-10.47-9.28-15.65-13.79l19.21-32.59c6.34,10.36,12.51,20.47,20.07,32.83-5.28,4.46-10.88,9.08-16.36,13.84Zm27.41-28.62c-11.35-17-20-33.15-21-52.51-2-42,10.71-80.35,28.3-117.58a19.25,19.25,0,0,1,1.08-1.73l1.81.42c-3,20,6.16,36.55,14.23,53.31,14.21,29.52,12.48,58.29-3.63,86.3-6.09,10.67-13.4,20.59-20.79,31.81Zm163.13,101.4c-2.84,20.23-13.91,27.61-32.66,19.38a209.35,209.35,0,0,1-40-23.38c-31.43-23.27-57.39-52.12-80.16-82.17,10.57-16.73,21.41-31.73,30-47.92,16.42-31,14.72-62.43-.67-93.63-4.38-8.88-8.5-18.1-10.92-27.63-1.43-5.62.1-12.28,1.41-18.22,1.45-6.53,6.46-7.24,11-3.38,7.56,6.38,15.29,12.85,21.55,20.43,26.32,31.87,44.9,68.39,62.14,105.66,13.41,29,26,58.21,32.9,89.58,4.5,20.23,8.34,40.46,5.41,61.3Z" transform="translate(-140.95 -59.37)"/><path class="cls-4" d="M621.14,834.37c10.57-16.73,21.42-31.73,30-47.92,16.42-31,14.72-62.44-.67-93.63-4.38-8.87-8.5-18.1-10.92-27.63-1.43-5.62.1-12.27,1.41-18.22,1.44-6.53,6.45-7.24,11-3.38,7.56,6.38,15.29,12.85,21.55,20.43,26.32,31.87,44.89,68.39,62.14,105.66,13.4,29,26,58.22,32.9,89.58,4.45,20.21,8.27,40.44,5.35,61.28-2.84,20.22-13.91,27.6-32.66,19.38a209.35,209.35,0,0,1-40-23.38C669.87,893.27,643.91,864.42,621.14,834.37Z" transform="translate(-140.95 -59.37)"/><path class="cls-5" d="M649.73,650.65" transform="translate(-140.95 -59.37)"/><path class="cls-5" d="M639.68,627.05" transform="translate(-140.95 -59.37)"/><path class="cls-2" d="M642,554.4c-.64,8.74-12.83,18.72-23.47,18.25-2.57-.11-6-2.28-7-4.19-.61-1.16,2.17-4.44,4.35-5.38,5-2.14,10.66-3.55,10.6-9.06-.06-5.71-4.52-9.34-10.37-12-2.14-1-4.53-1.56-6.69-2.5-7.53-3.28-15.28-6.31-22.41-10.08-5-2.66-8.91-2.72-14-.1-7.35,3.81-15.37,6.78-22.9,10.38-4.85,2.32-10.24,4.5-13.82,7.82C530.48,553,533,559,541.11,562c.75.27,1.52.5,2.29.74,3.55,1.13,6.52,2.93,5.2,6.25-1.41,3.53-5.23,4.41-9.56,3.67-19.57-3.36-27.34-20-14.07-31.94,5.2-4.68,12.9-8.12,20.27-10.6,11.44-3.85,20.84-8.92,27-17.81,1.28-1.86,5-3.61,7.68-3.63s6.51,1.68,7.76,3.53c6,8.94,15.15,14.48,27,17.69,10.62,2.89,19.89,7.34,24.55,16.06C640.56,548.58,641.09,551.56,642,554.4Z" transform="translate(-140.95 -59.37)"/><path class="cls-2" d="M541.7,577.87a20.6,20.6,0,0,1-3.5-.31c-12.18-2.09-21.39-9.11-24.06-18.32-2.26-7.83.47-15.94,7.49-22.26,5-4.47,12.37-8.38,22-11.63,12.14-4.08,19.68-9,24.44-15.9,2.43-3.55,8-5.77,11.76-5.8h.07c3.86,0,9.47,2.18,11.87,5.73,5.07,7.51,13,12.63,24.12,15.67,8.91,2.42,21.48,7,27.64,18.53a32.74,32.74,0,0,1,2.49,6.77c.24.83.47,1.66.74,2.48l.31.94-.07,1c-.86,11.69-15.59,23.45-28.68,22.88-4.22-.18-9.38-3.32-11.25-6.85a6.18,6.18,0,0,1-.25-5,14.26,14.26,0,0,1,7-7.31c.72-.31,1.46-.61,2.19-.9,4.3-1.73,5.41-2.45,5.39-3.51s0-4.15-7.42-7.48c-.88-.4-1.91-.75-3-1.12s-2.4-.82-3.63-1.35c-1.91-.84-3.83-1.65-5.75-2.46-5.66-2.4-11.5-4.88-17-7.79-3.65-1.92-5.74-1.94-9.35-.08-4.37,2.27-9,4.24-13.4,6.15-3.2,1.38-6.51,2.81-9.64,4.3l-2.48,1.17c-3.78,1.75-7.68,3.57-10.1,5.81-1.08,1-1.67,2-1.55,2.62.18.9,1.72,2.35,4.67,3.42.54.19,1.1.36,1.65.54l.43.13c2.75.87,6.56,2.44,8.26,6a8.36,8.36,0,0,1,.1,6.84C551.43,575.36,547.23,577.87,541.7,577.87Zm38.24-64.22h0a7.13,7.13,0,0,0-3.65,1.54c-6,8.74-15.11,14.82-29.43,19.64-8.35,2.81-14.58,6-18.52,9.58-4.12,3.71-5.75,8-4.57,12.05,1.59,5.5,7.77,9.81,16.14,11.24a10.14,10.14,0,0,0,2.91.09c-.26-.1-.56-.2-.91-.31l-.38-.12c-.71-.22-1.41-.44-2.09-.68-6.18-2.24-10.11-6.08-11.08-10.83-.49-2.43-.56-7.2,4.55-12,3.57-3.31,8.2-5.47,12.68-7.55l2.39-1.12c3.3-1.58,6.71-3,10-4.46,4.47-1.93,8.7-3.75,12.75-5.85,6.52-3.37,12.08-3.33,18.62.12,5.12,2.71,10.77,5.1,16.23,7.42,2,.83,3.9,1.65,5.84,2.5.86.37,1.83.7,2.87,1.06,1.25.43,2.56.87,3.87,1.46,8.77,4,13.25,9.5,13.32,16.49.09,8.17-7,11-11.66,12.9l-1.6.65a2.34,2.34,0,0,0,.58.14c7.8.35,17-7.09,18.15-12.82-.18-.6-.35-1.2-.51-1.78a25.26,25.26,0,0,0-1.68-4.77c-3.36-6.28-10-10.47-21.46-13.59-13.55-3.65-23.3-10.06-29.74-19.58A7.37,7.37,0,0,0,579.94,513.65ZM583.5,515Z" transform="translate(-140.95 -59.37)"/><path class="cls-3" d="M653.06,554.39c-.76,12.86-15.12,27.56-27.65,26.87-3-.17-7.12-3.36-8.31-6.17-.72-1.71,2.55-6.54,5.13-7.92,5.86-3.15,12.56-5.22,12.49-13.33-.07-8.4-5.32-13.75-12.22-17.63-2.52-1.42-5.34-2.29-7.89-3.67-8.87-4.83-18-9.3-26.41-14.84-5.94-3.91-10.5-4-16.47-.14-8.66,5.61-18.11,10-27,15.28-5.72,3.41-12.06,6.62-16.28,11.51-6.85,7.94-3.9,16.89,5.68,21.21.88.4,1.8.73,2.7,1.09,4.19,1.66,7.68,4.32,6.13,9.2-1.66,5.19-6.16,6.49-11.26,5.4-23.06-4.94-32.22-29.42-16.58-47,6.13-6.89,15.21-12,23.88-15.6,13.48-5.67,24.56-13.13,31.76-26.22,1.51-2.75,6-5.32,9-5.34s7.67,2.47,9.14,5.19c7.12,13.16,17.86,21.31,31.76,26,12.52,4.26,23.44,10.81,28.93,23.63C651.33,545.81,652,550.2,653.06,554.39Z" transform="translate(-140.95 -59.37)"/><path class="cls-2" d="M485.28,597.74c-11.15,1-19.19-3.3-23-11.19-4.88-10.21-10-21.36-10.41-32.26-1.46-38.32-18.4-69.86-43.43-98.57-2-2.29-7.37-4-2.4-8.7,4.54-4.25,9.07-5.2,14.49-2.13a8.85,8.85,0,0,1,2.05,2c21.91,24.82,39.05,51.93,44.53,84.46,2.09,12.39,2.63,25.07,5.61,37.24,1.87,7.63,7,14.52,10.52,21.83C484.24,592.46,484.5,594.81,485.28,597.74Z" transform="translate(-140.95 -59.37)"/><path class="cls-3" d="M493.45,598c-11,1-18.92-3.44-22.64-11.66C466,575.65,461,564,460.55,552.69c-1.44-39.91-18.13-72.77-42.81-102.67-2-2.39-7.27-4.21-2.36-9.07,4.47-4.43,8.94-5.42,14.28-2.22a9.14,9.14,0,0,1,2,2.07c21.6,25.85,38.49,54.09,43.89,88,2.06,12.9,2.59,26.12,5.52,38.79,1.84,8,6.94,15.13,10.37,22.74C492.43,592.45,492.68,594.9,493.45,598Z" transform="translate(-140.95 -59.37)"/><path class="cls-2" d="M675.72,599.92c2.91-6.46,4.75-12.53,8.13-17.62,7.53-11.33,8.72-24.13,9.43-36.82,2.19-38.92,20.93-70.38,45.42-99.41,3.89-4.61,9.14-5.06,13.59-1.65,5,3.86,2.57,8.24-.84,12.3-17.57,20.9-32,43.58-37.9,70.37-2.2,9.9-2.49,20.21-3.77,30.31-1.47,11.61-3.84,23-11.11,32.68C693.53,596.92,686.85,601.06,675.72,599.92Z" transform="translate(-140.95 -59.37)"/><path class="cls-3" d="M665.34,597.84c2.92-6.61,4.75-12.82,8.14-18,7.53-11.58,8.72-24.67,9.44-37.65,2.19-39.8,20.94-72,45.45-101.66,3.89-4.71,9.15-5.18,13.6-1.69,5,4,2.57,8.43-.84,12.58-17.58,21.38-32,44.56-37.93,72-2.2,10.13-2.49,20.66-3.77,31-1.47,11.87-3.85,23.53-11.11,33.42C683.17,594.77,676.47,599,665.34,597.84Z" transform="translate(-140.95 -59.37)"/><path class="cls-4" d="M510.34,641s17.46-12.49,23.83-10,5.08,4.69,10.9,18.9Z" transform="translate(-140.95 -59.37)"/><path class="cls-4" d="M510.44,641s.44-.44-1.31.87c-1.51,1.14,1.56,1,2.41.89h.21Z" transform="translate(-140.95 -59.37)"/><path class="cls-2" d="M553.42,813.53c-13.95,21.26-49.89,71.72-93,101.67a260.64,260.64,0,0,1-25.58,17.23c-8.19,4.82-17.88,7.55-27.22,9.76s-15.33-1.9-18.82-11c-6-15.74-4.5-32-2.24-48.08a326.34,326.34,0,0,1,25.17-88.23c20.91-46.61,41.5-93.63,74.21-133.59,7.74-9.45,14.6-16.5,22.08-21.27,2.52-1.61,4.64-2.74,5.81-3.34l.6-.39h0s19.49-14.08,24.25-6.6,4.87,10.47,12.18,27,21.17,53,22.47,83.83S573.34,783.18,553.42,813.53Z" transform="translate(-140.95 -59.37)"/><path class="cls-2" d="M606.72,814.84c13.95,21.26,49.89,71.72,93,101.67a260.64,260.64,0,0,0,25.58,17.23c8.19,4.82,17.88,7.55,27.22,9.76s15.33-1.9,18.82-11c6-15.74,4.5-32,2.24-48.08a326.34,326.34,0,0,0-25.17-88.23c-20.91-46.61-41.5-93.63-74.21-133.59-7.74-9.45-14.6-16.5-22.08-21.27-2.52-1.61-4.64-2.74-5.81-3.34l-.6-.39h0s-19.49-14.08-24.25-6.6-4.87,10.47-12.18,27-21.17,53-22.47,83.83S586.8,784.49,606.72,814.84Z" transform="translate(-140.95 -59.37)"/><polygon class="cls-2" points="503.54 489.47 503.48 489.62 503.43 489.38 503.54 489.47"/><path class="cls-3" d="M579.92,143.48" transform="translate(-140.95 -59.37)"/><path class="cls-6" d="M689.41,83.41c0,2.44-1.66,4.78-4.76,7-13.79,26.55-60.2,122.51-43.39,181a5.14,5.14,0,0,1,1.61,3.48,3.37,3.37,0,0,1-.15,1h0c-2.23,8.06-29.73,14.42-63.31,14.42-35,0-63.46-6.93-63.46-15.48a5.51,5.51,0,0,1,2.15-4h0a314.91,314.91,0,0,0-9.83-102.33,300,300,0,0,0-33.35-78.39c-2.92-2.16-4.48-4.44-4.48-6.8,0-13.22,49-23.94,109.49-23.94S689.41,70.19,689.41,83.41Z" transform="translate(-140.95 -59.37)"/><path class="cls-2" d="M1454.33,729c0,66,11.64,76.32,89.9,78.26v24.58h-229v-24.6c60.81-1.94,71.15-12.94,71.15-73.73V432.08c0-60.15-9.06-71.15-64.69-73.74V333.77h373.87l7.12,123.54h-22.63c-11-73.74-40.11-92.49-132.61-92.49H1465.3c-7.12,0-11,4.52-11,11V571.16c83.44,0,116.43-15.53,122.24-80.86h22.63V679.82h-22.63c-9.06-66-34.28-82.14-122.24-82.8V729Z" transform="translate(-140.95 -59.37)"/><path class="cls-2" d="M1854.72,730.92c0,65.33,7.76,76.32,57.57,78.26v22.64H1733.76V809.18c51.11-2.58,60.81-14.22,60.81-73.73V456.67c0-46.57-1.3-79.56-3.88-90.56-4.53-20.05-16.81-25.23-58.21-25.23v-22L1854.72,295Z" transform="translate(-140.95 -59.37)"/><path class="cls-2" d="M2077.23,729c0,66.63,9.06,78.26,60.15,80.2v22.64H1951.75V809.18c52.39-2.58,62.09-14.87,62.09-75.67v-82.8c0-49.81-1.3-83.44-4.52-95.09-3.89-20-16.17-25.87-58.87-25.87V507.11l126.78-24.57ZM2043,311.13c22.64,0,40.1,17.47,40.1,40.1s-17.46,40.11-40.1,40.11-40.1-17.47-40.1-40.11S2020.3,311.13,2043,311.13Z" transform="translate(-140.95 -59.37)"/><path class="cls-2" d="M2488,771.68c-37.52,45.28-81.5,66.63-136.49,66.63-100.91,0-169.46-70.51-169.46-174,0-106.08,73.09-181.76,177.23-181.76,82.79,0,131.3,47.23,131.3,131.31,0,11.64-2.58,12.94-20,12.94h-212.8c-2,7.12-2.59,17.47-2.59,29.11,0,89.91,45.28,148.78,114.5,148.78,35.57,0,66-15.53,98.31-51.11ZM2381.24,597c34.93,0,38.82-2.58,38.82-18.11,0-39.45-27.82-65.33-71.16-65.33-45.92,0-75.68,28.46-86.68,83.44Z" transform="translate(-140.95 -59.37)"/><path class="cls-2" d="M2769.33,780.74c62.1,9.06,102.85,50.45,102.85,108,0,71.79-59.51,111.25-167.52,111.25-96.39,0-163-36.87-163-90.56,0-36.22,25.87-64.69,57.57-64.69a62.05,62.05,0,0,1,39.45,13.59c-23.28,5.18-39.45,27.81-39.45,53.68,0,37.52,39.45,59.51,108,59.51q110.61,0,110.61-67.91c0-34.28-27.17-58.87-58.86-63.39-40.76-5.83-92.51-11.65-115.78-14.23-47.87-5.18-73.74-26.52-73.74-62.09,0-30.4,27.82-56.27,66-62.1v-2.58c-38.16-15.53-66.63-58.21-66.63-102.85,0-65.33,53.68-113.84,127.42-113.84,37.52,0,73.09,12.29,97,34.28,29.11-23.93,51.1-34.28,70.49-34.28,31.06,0,51.11,15.53,51.11,39.46,0,14.23-11,23.93-25.88,23.93-23.93,0-27.17-20-48.5-20-10.35,0-21.35,3.89-31.7,11,11,16.81,15.53,34.93,15.53,60.15,0,72.44-46.57,116.43-137.13,122.9-52.39,3.88-70.5,9.06-70.5,27.17,0,13.58,16.17,19.41,45.93,21.35C2704,771.68,2729.88,774.91,2769.33,780.74ZM2755.75,599c0-58.22-21.35-92.51-58.21-92.51s-60.81,35.58-60.81,91.85c0,56.92,24.57,94.44,61.45,94.44C2734.41,692.76,2755.75,657.83,2755.75,599Z" transform="translate(-140.95 -59.37)"/><path class="cls-2" d="M3242.82,771.68c-37.51,45.28-81.5,66.63-136.48,66.63-100.91,0-169.47-70.51-169.47-174,0-106.08,73.1-181.76,177.23-181.76,82.8,0,131.31,47.23,131.31,131.31,0,11.64-2.59,12.94-20,12.94H3012.55c-1.94,7.12-2.58,17.47-2.58,29.11,0,89.91,45.28,148.78,114.49,148.78,35.58,0,66-15.53,98.31-51.11ZM3136.11,597c34.93,0,38.81-2.58,38.81-18.11,0-39.45-27.81-65.33-71.15-65.33-45.93,0-75.68,28.46-86.68,83.44Z" transform="translate(-140.95 -59.37)"/><path class="cls-2" d="M3415.54,730.28c0,69.86,3.88,76.32,53.69,79.56v22H3299.76v-22c47.87-3.24,54.33-10.35,54.33-75v-86c0-50.45-1.3-82.8-3.88-93.79-5.18-23.29-14.23-27.17-51.75-27.17V507.13L3402,482.55l7.76,64h2.58c32.34-40.1,78.26-64,129.37-64,39.46,0,74.38,14.23,91.84,36.22,14.87,20.05,20,48.51,20,103.49v108c0,69.86,5.18,76.32,52.39,79.56v22H3538.43v-22c48.5-2.58,53.68-11,53.68-75v-85.4c0-97.67-20.05-131.95-73.73-131.95-38.16,0-73.1,22-91.21,56.93-9.06,17.47-11.64,28.46-11.64,69.21v86.67Z" transform="translate(-140.95 -59.37)"/><path class="cls-2" d="M3969.87,780.74c62.1,9.06,102.85,50.45,102.85,108,0,71.79-59.51,111.25-167.52,111.25-96.39,0-163-36.87-163-90.56,0-36.22,25.87-64.69,57.57-64.69a62.05,62.05,0,0,1,39.45,13.59c-23.28,5.18-39.45,27.81-39.45,53.68,0,37.52,39.45,59.51,108,59.51q110.61,0,110.61-67.91c0-34.28-27.17-58.87-58.86-63.39-40.76-5.83-92.51-11.65-115.78-14.23-47.87-5.18-73.74-26.52-73.74-62.09,0-30.4,27.82-56.27,66-62.1v-2.58c-38.16-15.53-66.63-58.21-66.63-102.85,0-65.33,53.68-113.84,127.42-113.84,37.52,0,73.09,12.29,97,34.28,29.11-23.93,51.1-34.28,70.49-34.28,31.06,0,51.11,15.53,51.11,39.46,0,14.23-11,23.93-25.88,23.93-23.93,0-27.17-20-48.5-20-10.35,0-21.35,3.89-31.7,11,11,16.81,15.53,34.93,15.53,60.15,0,72.44-46.57,116.43-137.13,122.9-52.39,3.88-70.5,9.06-70.5,27.17,0,13.58,16.17,19.41,45.93,21.35C3904.54,771.68,3930.42,774.91,3969.87,780.74ZM3956.29,599c0-58.22-21.35-92.51-58.21-92.51s-60.81,35.58-60.81,91.85c0,56.92,24.58,94.44,61.45,94.44C3934.94,692.76,3956.29,657.83,3956.29,599Z" transform="translate(-140.95 -59.37)"/><path class="cls-2" d="M4244.13,730.92c0,65.33,7.76,76.32,57.57,78.26v22.64H4123.17V809.18c51.1-2.58,60.81-14.22,60.81-73.73V456.67c0-46.57-1.3-79.56-3.88-90.56-4.53-20.05-16.82-25.23-58.21-25.23v-22L4244.13,295Z" transform="translate(-140.95 -59.37)"/><path class="cls-2" d="M4544.91,612.55V586c0-53.68-21.34-78.92-67.27-78.92-29.75,0-38.16,8.41-49.16,42-9.7,24.57-16.81,31-33.64,31-20.69,0-32.33-11.65-32.33-32.34,0-41.4,45.92-65.33,126.78-65.33,86.68,0,119,27.17,119,100.91v145c0,49.8,9.71,73.74,29.12,73.74,11.64,0,23.93-1.3,31.69-14.23l9.06,15.52c-10.34,20.06-41.4,34.94-71.79,34.94-37.52,0-56.27-25.23-56.27-69.21h-3.24c-22.64,42-64.69,68.57-112.56,68.57-53.68,0-87.32-30.4-87.32-76.32,0-41.4,26.52-74.38,104.79-108Zm0,27.82c-99,37.52-132.6,71.8-132.6,110,0,28.46,20.69,48.51,51.75,48.51,44.62,0,80.85-48.51,80.85-107.38Z" transform="translate(-140.95 -59.37)"/><path class="cls-2" d="M4733.13,831.83H4718.9V720.58h16.17c16.81,61.45,46.57,91.2,91.85,91.2,34.28,0,56.27-16.81,56.27-51.1,0-25.23-11.65-33-75-72.44-58.21-36.88-87.32-57.57-87.32-106.08,0-58.86,42-99.61,96.37-99.61,23.29,0,50.45,7.77,69.21,20.05l12.89-13.6h12.29v93.14h-16.81c-18.75-52.38-39.46-73.09-72.44-73.09-29.11,0-48.51,16.17-48.51,44,0,28.46,19.41,42,63.4,69.21,74.38,46.57,103.49,68.58,103.49,117.72,0,60.81-44,98.33-108,98.33-33.63,0-63.39-10.35-86.68-29.11Z" transform="translate(-140.95 -59.37)"/></svg>