<svg xmlns="http://www.w3.org/2000/svg" width="70" height="11" viewBox="0 0 70 11">
  <metadata><?xpacket begin="﻿" id="W5M0MpCehiHzreSzNTczkc9d"?>
<x:xmpmeta xmlns:x="adobe:ns:meta/" x:xmptk="Adobe XMP Core 5.6-c138 79.159824, 2016/09/14-01:09:01        ">
   <rdf:RDF xmlns:rdf="http://www.w3.org/1999/02/22-rdf-syntax-ns#">
      <rdf:Description rdf:about=""/>
   </rdf:RDF>
</x:xmpmeta>
                                                                                                    
                                                                                                    
                                                                                                    
                                                                                                    
                                                                                                    
                                                                                                    
                                                                                                    
                                                                                                    
                                                                                                    
                                                                                                    
                                                                                                    
                                                                                                    
                                                                                                    
                                                                                                    
                                                                                                    
                                                                                                    
                                                                                                    
                                                                                                    
                                                                                                    
                                                                                                    
                           
<?xpacket end="w"?></metadata>
<defs>
    <style>
      .cls-1 {
        fill: #ff9a00;
      }

      .cls-1, .cls-2 {
        fill-rule: evenodd;
      }

      .cls-2 {
        fill: #1e2834;
      }
    </style>
  </defs>
  <path class="cls-1" d="M6,0L7.977,3.457,12,4.2,9.2,7.083,9.708,11,6,9.323,2.292,11,2.8,7.083,0,4.2l4.022-.745L6,0"/>
  <path id="Shape_1_copy" data-name="Shape 1 copy" class="cls-1" d="M21,0l1.977,3.457L27,4.2,24.2,7.083,24.708,11,21,9.323,17.292,11,17.8,7.083,15,4.2l4.022-.745L21,0"/>
  <path id="Shape_1_copy_2" data-name="Shape 1 copy 2" class="cls-2" d="M35,0l1.977,3.457L41,4.2,38.2,7.083,38.708,11,35,9.323,31.292,11,31.8,7.083,29,4.2l4.022-.745L35,0"/>
  <path id="Shape_1_copy_3" data-name="Shape 1 copy 3" class="cls-2" d="M50,0l1.977,3.457L56,4.2,53.2,7.083,53.708,11,50,9.323,46.292,11,46.8,7.083,44,4.2l4.022-.745L50,0"/>
  <path id="Shape_1_copy_4" data-name="Shape 1 copy 4" class="cls-2" d="M64,0l1.977,3.457L70,4.2,67.2,7.083,67.708,11,64,9.323,60.292,11,60.8,7.083,58,4.2l4.022-.745L64,0"/>
</svg>
