<svg xmlns="http://www.w3.org/2000/svg" width="70" height="11" viewBox="0 0 70 11">
  <metadata><?xpacket begin="﻿" id="W5M0MpCehiHzreSzNTczkc9d"?>
<x:xmpmeta xmlns:x="adobe:ns:meta/" x:xmptk="Adobe XMP Core 5.6-c138 79.159824, 2016/09/14-01:09:01        ">
   <rdf:RDF xmlns:rdf="http://www.w3.org/1999/02/22-rdf-syntax-ns#">
      <rdf:Description rdf:about=""/>
   </rdf:RDF>
</x:xmpmeta>
                                                                                                    
                                                                                                    
                                                                                                    
                                                                                                    
                                                                                                    
                                                                                                    
                                                                                                    
                                                                                                    
                                                                                                    
                                                                                                    
                                                                                                    
                                                                                                    
                                                                                                    
                                                                                                    
                                                                                                    
                                                                                                    
                                                                                                    
                                                                                                    
                                                                                                    
                                                                                                    
                           
<?xpacket end="w"?></metadata>
<defs>
    <style>
      .cls-1 {
        fill: #ff9a00;
        fill-rule: evenodd;
      }
    </style>
  </defs>
  <path id="Shape_1_copy_4" data-name="Shape 1 copy 4" class="cls-1" d="M6,0L7.979,3.457,12,4.2,9.2,7.083,9.709,11,6,9.323,2.293,11,2.8,7.083,0,4.2l4.022-.745L6,0M20.5,0l1.978,3.457L26.5,4.2,23.7,7.083,24.209,11,20.5,9.323,16.792,11,17.3,7.083,14.5,4.2l4.022-.745L20.5,0M35,0l1.978,3.457L41,4.2,38.2,7.083,38.708,11,35,9.323,31.292,11,31.8,7.083,29,4.2l4.022-.745L35,0M49.5,0l1.978,3.457L55.5,4.2,52.7,7.083,53.208,11,49.5,9.323,45.791,11,46.3,7.083,43.5,4.2l4.022-.745L49.5,0M64,0l1.978,3.457L70,4.2,67.2,7.083,67.707,11,64,9.323,60.291,11,60.8,7.083,58,4.2l4.022-.745L64,0"/>
</svg>
