<svg xmlns="http://www.w3.org/2000/svg" width="49.958" height="52.12" viewBox="0 0 439 458">
  <metadata><?xpacket begin="﻿" id="W5M0MpCehiHzreSzNTczkc9d"?>
<x:xmpmeta xmlns:x="adobe:ns:meta/" x:xmptk="Adobe XMP Core 5.6-c138 79.159824, 2016/09/14-01:09:01        ">
   <rdf:RDF xmlns:rdf="http://www.w3.org/1999/02/22-rdf-syntax-ns#">
      <rdf:Description rdf:about=""/>
   </rdf:RDF>
</x:xmpmeta>
                                                                                                    
                                                                                                    
                                                                                                    
                                                                                                    
                                                                                                    
                                                                                                    
                                                                                                    
                                                                                                    
                                                                                                    
                                                                                                    
                                                                                                    
                                                                                                    
                                                                                                    
                                                                                                    
                                                                                                    
                                                                                                    
                                                                                                    
                                                                                                    
                                                                                                    
                                                                                                    
                           
<?xpacket end="w"?></metadata>
<defs>
    <style>
      .cls-1 {
        fill: #fff;
        fill-rule: evenodd;
      }
    </style>
  </defs>
  <path id="Forma_1" data-name="Forma 1" class="cls-1" d="M4.061,201.867a17.057,17.057,0,1,1,33.688,5.377c-0.016.1-.033,0.2-0.051,0.3-17.37,102.273,51.441,199.265,153.7,216.639s199.228-51.451,216.6-153.724S356.55,71.2,254.3,53.824a187.78,187.78,0,0,0-169.965,58.34l75.563,25.18a17.062,17.062,0,0,1,10.8,21.574l0,0.007a17.056,17.056,0,0,1-21.57,10.8l-0.007,0L46.772,135.6A17.062,17.062,0,0,1,35.1,119.415V17.053a17.058,17.058,0,1,1,34.115,0V79.374C157.063-4.191,296-.71,379.554,87.15s80.069,226.827-7.775,310.393-226.785,80.084-310.335-7.776A219.58,219.58,0,0,1,4.061,201.867Z"/>
</svg>
