<svg xmlns="http://www.w3.org/2000/svg" width="72" height="13" viewBox="0 0 72 13">
  <metadata><?xpacket begin="﻿" id="W5M0MpCehiHzreSzNTczkc9d"?>
<x:xmpmeta xmlns:x="adobe:ns:meta/" x:xmptk="Adobe XMP Core 5.6-c138 79.159824, 2016/09/14-01:09:01        ">
   <rdf:RDF xmlns:rdf="http://www.w3.org/1999/02/22-rdf-syntax-ns#">
      <rdf:Description rdf:about=""/>
   </rdf:RDF>
</x:xmpmeta>
                                                                                                    
                                                                                                    
                                                                                                    
                                                                                                    
                                                                                                    
                                                                                                    
                                                                                                    
                                                                                                    
                                                                                                    
                                                                                                    
                                                                                                    
                                                                                                    
                                                                                                    
                                                                                                    
                                                                                                    
                                                                                                    
                                                                                                    
                                                                                                    
                                                                                                    
                                                                                                    
                           
<?xpacket end="w"?></metadata>
<defs>
    <style>
      .cls-1 {
        fill: #97a0ac;
        fill-rule: evenodd;
      }
    </style>
  </defs>
  <path class="cls-1" d="M7,1L8.977,4.457,13,5.2,10.2,8.083,10.708,12,7,10.323,3.292,12,3.8,8.083,1,5.2l4.022-.745L7,1"/>
  <path id="Shape_1_copy" data-name="Shape 1 copy" class="cls-1" d="M22,1l1.977,3.457L28,5.2,25.2,8.083,25.708,12,22,10.323,18.292,12,18.8,8.083,16,5.2l4.022-.745L22,1"/>
  <path id="Shape_1_copy_2" data-name="Shape 1 copy 2" class="cls-1" d="M36,1l1.977,3.457L42,5.2,39.2,8.083,39.708,12,36,10.323,32.292,12,32.8,8.083,30,5.2l4.022-.745L36,1"/>
  <path id="Shape_1_copy_3" data-name="Shape 1 copy 3" class="cls-1" d="M51,1l1.977,3.457L57,5.2,54.2,8.083,54.708,12,51,10.323,47.292,12,47.8,8.083,45,5.2l4.022-.745L51,1"/>
  <path id="Shape_1_copy_4" data-name="Shape 1 copy 4" class="cls-1" d="M65,1l1.977,3.457L71,5.2,68.2,8.083,68.708,12,65,10.323,61.292,12,61.8,8.083,59,5.2l4.022-.745L65,1"/>
</svg>
