<svg xmlns="http://www.w3.org/2000/svg" width="49.958" height="52.12" viewBox="0 0 439 458">
  <metadata><?xpacket begin="﻿" id="W5M0MpCehiHzreSzNTczkc9d"?>
<x:xmpmeta xmlns:x="adobe:ns:meta/" x:xmptk="Adobe XMP Core 5.6-c138 79.159824, 2016/09/14-01:09:01        ">
   <rdf:RDF xmlns:rdf="http://www.w3.org/1999/02/22-rdf-syntax-ns#">
      <rdf:Description rdf:about=""/>
   </rdf:RDF>
</x:xmpmeta>
                                                                                                    
                                                                                                    
                                                                                                    
                                                                                                    
                                                                                                    
                                                                                                    
                                                                                                    
                                                                                                    
                                                                                                    
                                                                                                    
                                                                                                    
                                                                                                    
                                                                                                    
                                                                                                    
                                                                                                    
                                                                                                    
                                                                                                    
                                                                                                    
                                                                                                    
                                                                                                    
                           
<?xpacket end="w"?></metadata>
<defs>
    <style>
      .cls-1 {
        fill: #fff;
        fill-rule: evenodd;
      }
    </style>
  </defs>
  <path id="Forma_1" data-name="Forma 1" class="cls-1" d="M436.467,201.931a17.072,17.072,0,0,0-33.719,5.373c0.016,0.1.033,0.2,0.051,0.3,17.386,102.21-51.489,199.143-153.837,216.506s-199.413-51.42-216.8-153.63S83.653,71.342,186,53.979a188.125,188.125,0,0,1,170.122,58.3l-75.633,25.165a17.046,17.046,0,0,0-10.81,21.561l0,0.007a17.078,17.078,0,0,0,21.59,10.8l0.007,0,102.438-34.1a17.054,17.054,0,0,0,11.678-16.18V17.23a17.074,17.074,0,0,0-34.147,0V79.512C283.324-4,144.254-.522,60.627,87.284s-80.143,226.687,7.782,310.2,226.995,80.035,310.622-7.771A219.219,219.219,0,0,0,436.467,201.931Z"/>
</svg>
