<?xml version="1.0" encoding="utf-8"?>
<!-- Generator: Adobe Illustrator 23.0.4, SVG Export Plug-In . SVG Version: 6.00 Build 0)  -->
<svg version="1.1" id="Layer_1" xmlns="http://www.w3.org/2000/svg" xmlns:xlink="http://www.w3.org/1999/xlink" x="0px" y="0px"
	 viewBox="0 0 24 24" style="enable-background:new 0 0 24 24;" xml:space="preserve">
<style type="text/css">
	.st0{opacity:0.9;fill:#FFFFFF;}
</style>
<path class="st0" d="M12.7,21.5c0,0.3-0.2,0.5-0.4,0.5h-1.6c-0.3,0-0.4-0.2-0.4-0.5V3c0-0.3,0.2-0.5,0.4-0.5h1.6
	c0.3,0,0.4,0.2,0.4,0.5V21.5z"/>
<path class="st0" d="M4.1,5.3c0-0.3,0.2-0.5,0.4-0.5h1.6c0.3,0,0.4,0.2,0.4,0.5v16.2c0,0.3-0.2,0.5-0.4,0.5H4.5
	c-0.3,0-0.4-0.2-0.4-0.5V5.3z"/>
<path class="st0" d="M15.1,5.6c0-0.3,0.1-0.5,0.4-0.6l1.8-0.3c0.3,0,0.5,0.1,0.6,0.4l2.2,16c0,0.3-0.1,0.5-0.4,0.6L17.9,22
	c-0.3,0-0.5-0.1-0.6-0.4L15.1,5.6z"/>
</svg>
