<svg width="33" height="33" xmlns="http://www.w3.org/2000/svg">

 <g>
  <title>background</title>
  <rect fill="none" id="canvas_background" height="402" width="582" y="-1" x="-1"/>
 </g>
 <g>
  <title>Layer 1</title>
  <path id="svg_2" fill="#ffffff" d="m29.126,14.243c0.032,-0.328 0.049,-0.655 0.049,-0.978c0,-5.565 -4.528,-10.094 -10.095,-10.094c-3.004,0 -5.863,1.355 -7.773,3.656c-0.455,-0.097 -0.917,-0.147 -1.379,-0.147c-3.631,0 -6.585,2.954 -6.585,6.585c0,0.406 0.038,0.81 0.111,1.208c-1.817,1.108 -2.954,3.093 -2.954,5.256c0,3.395 2.762,6.156 6.157,6.156l0.96,0l0,-1.883l-0.96,0c-2.357,0 -4.275,-1.916 -4.275,-4.273c0,-1.688 1,-3.22 2.545,-3.907l0.769,-0.341l-0.252,-0.802c-0.145,-0.458 -0.218,-0.935 -0.218,-1.414c0,-2.593 2.109,-4.702 4.702,-4.702c0.487,0 0.976,0.077 1.451,0.23l0.649,0.209l0.4,-0.553c1.544,-2.127 4.03,-3.396 6.651,-3.396c4.528,0 8.212,3.684 8.212,8.211c0,0.459 -0.04,0.93 -0.121,1.397l-0.134,0.78l0.744,0.266c1.696,0.606 2.836,2.221 2.836,4.02c0,2.357 -1.917,4.273 -4.274,4.273l-0.961,0l0,1.883l0.961,0c3.396,0 6.157,-2.762 6.157,-6.156c0.001,-2.329 -1.327,-4.447 -3.373,-5.484z"/>
  <path id="svg_3" fill="#ffffff" d="m17.441,27.006l0,-11.588l-1.883,0l0,11.585l-4.146,-4.148l-1.331,1.33l5.089,5.092c0.367,0.367 0.849,0.551 1.331,0.551c0.481,0 0.964,-0.184 1.331,-0.551l5.087,-5.092l-1.331,-1.33l-4.147,4.151z"/>
 </g>
</svg>