<svg width="22" height="19" viewBox="0 0 22 19" fill="none" xmlns="http://www.w3.org/2000/svg">
<path d="M7.79165 9.49998C10.1504 9.49998 12.0625 7.58786 12.0625 5.22915C12.0625 2.87043 10.1504 0.958313 7.79165 0.958313C5.43293 0.958313 3.52081 2.87043 3.52081 5.22915C3.52081 7.58786 5.43293 9.49998 7.79165 9.49998Z" stroke="white" stroke-width="1.70833" stroke-linecap="round" stroke-linejoin="round"/>
<path d="M4.37498 12.9166H11.2083C12.1145 12.9166 12.9835 13.2766 13.6243 13.9173C14.265 14.5581 14.625 15.4271 14.625 16.3333V18.0416H0.958313V16.3333C0.958313 15.4271 1.31828 14.5581 1.95903 13.9173C2.59978 13.2766 3.46882 12.9166 4.37498 12.9166V12.9166Z" stroke="white" stroke-width="1.70833" stroke-linecap="round" stroke-linejoin="round"/>
<path d="M15.6329 7.09125L20.4504 11.9087" stroke="white" stroke-width="1.70833" stroke-linecap="round" stroke-linejoin="round"/>
<path d="M20.4504 7.09125L15.6329 11.9087" stroke="white" stroke-width="1.70833" stroke-linecap="round" stroke-linejoin="round"/>
</svg>
