<?xml version="1.0" encoding="utf-8"?>
<!-- Generator: Adobe Illustrator 23.0.6, SVG Export Plug-In . SVG Version: 6.00 Build 0)  -->
<svg version="1.1" id="Layer_1" xmlns="http://www.w3.org/2000/svg" xmlns:xlink="http://www.w3.org/1999/xlink" x="0px" y="0px"
	 viewBox="0 0 200 200" style="enable-background:new 0 0 200 200;" xml:space="preserve">
<style type="text/css">
	.st0{fill:#FFFFFF;}
</style>
<title>background</title>
<title>Layer 1</title>
<path id="svg_1" class="st0" d="M28.7,71C51.3,31.6,101.5,18,140.9,40.6l-6.2-24.4c-1.1-4.3,1.5-8.7,5.9-9.9
	c4.4-1.2,8.9,1.4,10.1,5.8l13.5,53l-53,13.5c-0.7,0.2-1.3,0.3-2,0.3c-3.8,0-7-2.5-8-6.2c-1.1-4.4,1.5-8.9,5.9-10l27.1-6.9
	c-12.5-7.6-27.1-10.8-41.6-9.2c-36.1,4.1-62,36.6-58,72.7s36.6,62,72.7,58s62-36.6,58-72.7c-0.4-4.4,2.7-8.3,7.1-8.9
	c4.5-0.6,8.6,2.6,9.2,7.1c2.8,24.8-5.9,49.5-23.6,67.2C126,202,74,202,41.9,169.9C15.7,143.7,10.3,103.1,28.7,71z"/>
</svg>
