<?xml version="1.0" encoding="utf-8"?>
<!-- Generator: Adobe Illustrator 24.1.0, SVG Export Plug-In . SVG Version: 6.00 Build 0)  -->
<svg version="1.1" id="Layer_1" xmlns="http://www.w3.org/2000/svg" xmlns:xlink="http://www.w3.org/1999/xlink" x="0px" y="0px"
	 viewBox="0 0 160 160" style="enable-background:new 0 0 160 160;" xml:space="preserve">
<style type="text/css">
	.st0{fill:#FFFFFF;}
	.st1{fill:#0B1521;}
</style>
<g>
	<circle class="st0" cx="80" cy="80" r="80"/>
	<g>
		<g>
			<path class="st1" d="M102.5,109.5c0,2.2-1.8,4-4,4h-6c-2.2,0-4-1.8-4-4v-59c0-2.2,1.8-4,4-4h6c2.2,0,4,1.8,4,4V109.5z"/>
		</g>
		<g>
			<path class="st1" d="M71.5,109.5c0,2.2-1.8,4-4,4h-6c-2.2,0-4-1.8-4-4v-59c0-2.2,1.8-4,4-4h6c2.2,0,4,1.8,4,4V109.5z"/>
		</g>
	</g>
</g>
</svg>
