<?xml version="1.0" encoding="utf-8"?>
<!-- Generator: Adobe Illustrator 24.1.0, SVG Export Plug-In . SVG Version: 6.00 Build 0)  -->
<svg version="1.1" id="Layer_1" xmlns="http://www.w3.org/2000/svg" xmlns:xlink="http://www.w3.org/1999/xlink" x="0px" y="0px"
	 viewBox="0 0 60 60" style="enable-background:new 0 0 60 60;" xml:space="preserve">
<style type="text/css">
	.st0{fill:#FFFFFF;}
</style>
<g id="iOS-Player-_x28_Native_x29__1_">
	<g id="Player-Version-2.1_1_" transform="translate(-111.000000, -629.000000)">
		<path class="st0" d="M141,682.7l-2.7-2.1c-10.6-8.4-17-13.5-20.7-20.3c-2.8-5.2-3.6-10.3-2.2-14.8c1.2-3.9,4-7,7.7-8.8
			c1.9-0.9,4-1.4,6.2-1.4c4.5,0,8.8,2,11.6,5.2c2.8-3.3,7.1-5.2,11.6-5.2c2.2,0,4.3,0.5,6.2,1.4c3.8,1.8,6.5,4.9,7.7,8.8
			c1.4,4.5,0.7,9.7-2.2,14.8c-3.7,6.8-10.1,11.9-20.7,20.3L141,682.7z M129.4,638.3c-1.8,0-3.4,0.4-5,1.1c-3,1.4-5.2,3.9-6.1,7
			c-1.2,3.8-0.5,8.1,1.9,12.5c3.4,6.3,9.6,11.2,19.9,19.3l0.9,0.7l0.8-0.6c10.3-8.2,16.5-13.1,20-19.4c2.4-4.4,3.1-8.8,1.9-12.5
			c-1-3.1-3.1-5.5-6.1-7c-1.5-0.7-3.2-1.1-5-1.1c-4.2,0-8.2,2.1-10.3,5.5l-1.3,2l-1.3-2C137.6,640.4,133.6,638.3,129.4,638.3z"/>
	</g>
</g>
</svg>
