<?xml version="1.0" encoding="utf-8"?>
<!-- Generator: Adobe Illustrator 23.0.4, SVG Export Plug-In . SVG Version: 6.00 Build 0)  -->
<svg version="1.1" id="Layer_1" xmlns="http://www.w3.org/2000/svg" xmlns:xlink="http://www.w3.org/1999/xlink" x="0px" y="0px"
	 viewBox="0 0 24 24" style="enable-background:new 0 0 24 24;" xml:space="preserve">
<style type="text/css">
	.st0{opacity:0.9;}
	.st1{fill:#FFFFFF;}
</style>
<title>icons/20p/home/filled</title>
<desc>Created with Sketch.</desc>
<g class="st0">
	<path class="st1" d="M4.3,9c-1.6,0-3,1.4-3,3s1.4,3,3,3s3-1.4,3-3S5.9,9,4.3,9z M4.3,13.8c-1,0-1.7-0.8-1.7-1.8s0.7-1.7,1.7-1.7
		S6.1,11,6.1,12S5.3,13.8,4.3,13.8z"/>
	<path class="st1" d="M12,9c-1.7,0-3,1.4-3,3s1.4,3,3,3s3-1.4,3-3S13.6,9,12,9z M12,13.8c-1,0-1.8-0.8-1.8-1.8s0.8-1.8,1.8-1.8
		s1.7,0.8,1.7,1.8S13,13.8,12,13.8z"/>
	<path class="st1" d="M19.6,9c-1.7,0-3,1.4-3,3s1.4,3,3,3c1.7,0,3-1.4,3-3S21.3,9,19.6,9z M19.6,13.8c-1,0-1.8-0.8-1.8-1.8
		s0.8-1.8,1.8-1.8s1.8,0.8,1.8,1.8S20.6,13.8,19.6,13.8z"/>
</g>
</svg>
