<?xml version="1.0" encoding="utf-8"?>
<!-- Generator: Adobe Illustrator 24.1.0, SVG Export Plug-In . SVG Version: 6.00 Build 0)  -->
<svg version="1.1" id="Layer_1" xmlns="http://www.w3.org/2000/svg" xmlns:xlink="http://www.w3.org/1999/xlink" x="0px" y="0px"
	 viewBox="0 0 160 160" style="enable-background:new 0 0 160 160;" xml:space="preserve">
<style type="text/css">
	.st0{fill:#FFFFFF;}
</style>
<path class="st0" d="M80,1C36.4,1,1,36.4,1,80s35.4,79,79,79s79-35.4,79-79S123.6,1,80,1z M71.6,109.1c0,2.2-1.8,4-3.9,4h-5.9
	c-2.2,0-4-1.8-4-4V50.9c0-2.2,1.8-4,4-4h5.9c2.2,0,3.9,1.8,3.9,4V109.1z M102.2,109.1c0,2.2-1.8,4-3.9,4h-5.9c-2.2,0-3.9-1.8-3.9-4
	V50.9c0-2.2,1.8-4,3.9-4h5.9c2.2,0,3.9,1.8,3.9,4V109.1z"/>
</svg>
