<?xml version="1.0" encoding="UTF-8"?>
<svg width="31px" height="29px" viewBox="0 0 31 29" version="1.1" xmlns="http://www.w3.org/2000/svg" xmlns:xlink="http://www.w3.org/1999/xlink">
    <!-- Generator: Sketch 61.2 (89653) - https://sketch.com -->
    <title>btn_like_suggestion</title>
    <desc>Created with Sketch.</desc>
    <g id="iOS-Player-(Native)" stroke="none" stroke-width="1" fill="none" fill-rule="evenodd">
        <g id="Player-Version-2.1---iPhone-11" transform="translate(-121.000000, -704.000000)" fill="#F8063F" stroke="#FFFFFF">
            <path d="M136.500173,732 L135.475504,731.146337 C129.362938,726.055914 125.671876,722.986713 123.570983,718.979147 C122.024314,716.03783 121.610258,713.136372 122.370704,710.59033 C123.008705,708.461155 124.445818,706.745525 126.421044,705.762318 C127.437657,705.255767 128.54127,705 129.704494,705 C132.47561,705 135.084004,706.491419 136.500173,708.803285 C137.916342,706.491419 140.527958,705 143.295851,705 C144.459075,705 145.562689,705.255767 146.57769,705.760657 C148.554527,706.745525 149.991641,708.461155 150.629642,710.59033 C151.390088,713.136372 150.97442,716.03783 149.429362,718.979147 C147.326858,722.988374 143.632574,726.062558 137.511952,731.156302 L136.500173,732 Z" id="btn_like_suggestion"></path>
        </g>
    </g>
</svg>