<?xml version="1.0" encoding="utf-8"?>
<!-- Generator: Adobe Illustrator 19.0.0, SVG Export Plug-In . SVG Version: 6.00 Build 0)  -->
<svg version="1.1" id="Layer_1" xmlns="http://www.w3.org/2000/svg" xmlns:xlink="http://www.w3.org/1999/xlink" x="0px" y="0px"
	 viewBox="-280 372 50 50" style="enable-background:new -280 372 50 50;" xml:space="preserve">
<style type="text/css">
	.st0{fill:none;stroke:#6C7279;stroke-width:2.5;}
</style>
<g id="iOS-Player-_x28_Native_x29__1_">
	<g id="Player-Version-2.1_1_" transform="translate(-111.000000, -629.000000)">
		<path id="btn_like_suggestion_1_" class="st0" d="M-144,1045.1l-1.5-1.2c-9.1-7.2-14.5-11.5-17.6-17.2c-2.3-4.1-2.9-8.2-1.8-11.9
			c0.9-3,3.1-5.4,6-6.8c1.5-0.7,3.1-1.1,4.9-1.1c4.1,0,8,2.1,10.1,5.4c2.1-3.3,6-5.4,10.1-5.4c1.7,0,3.4,0.4,4.9,1.1
			c2.9,1.4,5.1,3.8,6,6.8c1.1,3.6,0.5,7.7-1.8,11.9c-3.1,5.7-8.6,10-17.6,17.2L-144,1045.1z"/>
	</g>
</g>
</svg>
