<?xml version="1.0" encoding="utf-8"?>
<!-- Generator: Adobe Illustrator 24.0.1, SVG Export Plug-In . SVG Version: 6.00 Build 0)  -->
<svg version="1.1" id="Layer_1" xmlns="http://www.w3.org/2000/svg" xmlns:xlink="http://www.w3.org/1999/xlink" x="0px" y="0px"
	 viewBox="0 0 40 40" style="enable-background:new 0 0 40 40;" xml:space="preserve">
<style type="text/css">
	.st0{fill:#FFFFFF;}
</style>
<title>background</title>
<title>Layer 1</title>
<path id="svg_2" class="st0" d="M20.3,25.8h-0.7c-3.2,0-5.9-2.6-5.9-5.9v-8.1c0-3.2,2.6-5.9,5.9-5.9h0.7c3.2,0,5.9,2.6,5.9,5.9
	c0,0.6-0.4,1-1,1s-1-0.4-1-1c0-2.1-1.7-3.9-3.9-3.9h-0.7c-2.1,0-3.9,1.7-3.9,3.9v8.1c0,2.1,1.7,3.9,3.9,3.9h0.7
	c2.1,0,3.9-1.7,3.9-3.9v-3.4c0-0.6,0.4-1,1-1s1,0.4,1,1v3.4C26.2,23.2,23.6,25.8,20.3,25.8z"/>
<path id="svg_4" class="st0" d="M20,0.1c-11,0-20,9-20,20s9,20,20,20s20-9,20-20S31,0.1,20,0.1z M20,38.1c-9.9,0-18-8.1-18-18
	s8.1-18,18-18s18,8.1,18,18S29.9,38.1,20,38.1z"/>
<path id="svg_5" class="st0" d="M21,29.8v2.6h3c0.5,0,1,0.4,1,1s-0.5,1-1,1h-8c-0.5,0-1-0.4-1-1s0.5-1,1-1h3v-2.6
	c-5.1-0.3-9.2-4.6-9.2-9.9c0-0.6,0.5-1,1-1c0.6,0,1,0.4,1,1c0,4.3,3.5,7.9,7.9,7.9h0.7c4.4,0,7.9-3.5,7.9-7.9c0-0.6,0.5-1,1-1
	s1,0.4,1,1C30.2,25.1,26.1,29.4,21,29.8z"/>
</svg>
