<svg width="67" height="67" viewBox="0 0 67 67" fill="none" xmlns="http://www.w3.org/2000/svg">
<path d="M33.5 66.7719C15.1578 66.7719 0.228149 51.8422 0.228149 33.5C0.228149 15.1578 15.1578 0.228134 33.5 0.228134C51.8422 0.228134 66.7719 15.1578 66.7719 33.5C66.7719 51.8422 51.8422 66.7719 33.5 66.7719ZM33.5 3.78282C17.1485 3.78282 3.78284 17.1484 3.78284 33.5C3.78284 49.8516 17.1485 63.2172 33.5 63.2172C49.8516 63.2172 63.2172 49.8516 63.2172 33.5C63.2172 17.1484 49.8516 3.78282 33.5 3.78282Z" fill="#32AC5C"/>
<path d="M29.5188 47.8609L12.5984 30.7984L15.1579 28.2391L29.5188 42.7422L51.8422 20.4188L54.4016 22.9781L29.5188 47.8609Z" fill="#32AC5C"/>
</svg>
