<?xml version="1.0" encoding="utf-8"?>
<!-- Generator: Adobe Illustrator 24.1.0, SVG Export Plug-In . SVG Version: 6.00 Build 0)  -->
<svg version="1.1" id="Layer_1" xmlns="http://www.w3.org/2000/svg" xmlns:xlink="http://www.w3.org/1999/xlink" x="0px" y="0px"
	 viewBox="0 0 84 84" style="enable-background:new 0 0 84 84;" xml:space="preserve">
<style type="text/css">
	.st0{fill:#FFFFFF;}
</style>
<g>
	<path class="st0" d="M7.7,45.9H4c0,20.9,17.1,38,38,38s38-17.1,38-38s-17.1-38-38-38v3.7c19,0,34.3,15.3,34.3,34.3S61,80.2,42,80.2
		S7.7,64.9,7.7,45.9z"/>
	<g>
		<path class="st0" d="M40.2,18.9c1.1,0.8,2.2,0.1,2.2-1.3v-16c0-1.4-0.9-1.9-2.2-1.3l-13.8,8c-1.3,0.6-1.3,1.8,0,2.5L40.2,18.9z"/>
	</g>
	<g>
		<path class="st0" d="M34.6,33.6V58h-3.3V37.7l-4.7,2l-1.3-2.8l7.1-3.3H34.6z"/>
		<path class="st0" d="M39.1,45.8c0-3.7,0.9-6.7,2.8-9.1c1.8-2.4,4.2-3.5,7-3.5c2.8,0,5.2,1.3,7,3.7s2.8,5.4,2.8,9.1
			c0,3.7-0.9,6.7-2.8,9.1c-1.8,2.4-4.2,3.5-7,3.5c-2.8,0-5.2-1.1-7-3.5C40.2,52.5,39.1,49.5,39.1,45.8z M55.4,45.8
			c0-2.8-0.6-5.1-1.8-6.8c-1.1-1.8-2.7-2.7-4.7-2.7c-2,0-3.5,0.9-4.7,2.7c-1.1,1.8-1.8,4.1-1.8,6.8c0,2.8,0.6,5.1,1.8,7
			c1.1,1.8,2.7,2.7,4.7,2.7c2,0,3.5-0.9,4.7-2.7C54.7,50.9,55.4,48.6,55.4,45.8z"/>
	</g>
</g>
</svg>
