<?xml version="1.0" encoding="utf-8"?>
<!-- Generator: Adobe Illustrator 24.1.0, SVG Export Plug-In . SVG Version: 6.00 Build 0)  -->
<svg version="1.1" id="Layer_1" xmlns="http://www.w3.org/2000/svg" xmlns:xlink="http://www.w3.org/1999/xlink" x="0px" y="0px"
	 viewBox="0 0 84 84" style="enable-background:new 0 0 84 84;" xml:space="preserve">
<style type="text/css">
	.st0{fill:#FFFFFF;}
</style>
<g>
	<path class="st0" d="M42,80.2c-18.8,0-33.9-15.2-33.9-33.9S23.2,12.3,42,12.3V8.7C21.3,8.7,4.4,25.6,4.4,46.3S21.3,83.9,42,83.9
		S79.6,67,79.6,46.3h-3.6C75.9,65.1,60.8,80.2,42,80.2z"/>
	<g>
		<path class="st0" d="M57.8,11.5c1-0.6,1-1.4,0-2L43.3,1.1c-1-0.6-1.7-0.1-1.7,1v16.8c0,1.1,0.8,1.5,1.7,1L57.8,11.5z"/>
	</g>
	<g>
		<path class="st0" d="M34.7,34.3v24h-3.2v-20l-4.7,2l-1.2-2.7l7.1-3.3H34.7z"/>
		<path class="st0" d="M39.2,46.3c0-3.6,0.9-6.7,2.7-9c1.8-2.4,4.1-3.5,6.9-3.5s5.1,1.2,6.9,3.6c1.8,2.4,2.7,5.4,2.7,9
			c0,3.6-0.9,6.6-2.7,9c-1.8,2.4-4.1,3.5-6.9,3.5s-5.1-1.2-6.9-3.5C40.1,52.9,39.2,49.9,39.2,46.3z M55.2,46.3c0-2.8-0.6-5-1.8-6.8
			c-1.1-1.8-2.7-2.7-4.6-2.7s-3.4,0.9-4.6,2.7c-1.2,1.8-1.8,4-1.8,6.8c0,2.8,0.6,5,1.8,6.8c1.1,1.8,2.7,2.6,4.6,2.6s3.4-0.9,4.6-2.7
			C54.6,51.3,55.2,49,55.2,46.3z"/>
	</g>
</g>
</svg>
