<svg id="Layer_1" data-name="Layer 1" xmlns="http://www.w3.org/2000/svg" viewBox="0 0 1382.85 1341.4"><defs><style>.cls-1{fill:#fff;fill-rule:evenodd;}</style></defs><title>flight-mode</title><path class="cls-1" d="M389.54,1282.47q-2.66,10.4,2.67,18.2t16,7.81h96.06q26.69,0,42.7-23.43L843.18,798.56q13.35-23.41,42.7-23.41h333.56c170.81,0,185.41-213.34,0-213.34H885.88q-29.36,0-42.7-23.41L547,51.89q-16-23.41-42.7-23.41H408.23q-10.68,0-16,7.8t-2.67,18.21L549.65,535.8Q555,546.2,548.32,554a21.73,21.73,0,0,1-17.34,7.8H272.13q-29.37,0-45.36-20.8l-48-65.05c-18.23-23.72-140.19-41.85-128.09,5.19l48,161.32a86.49,86.49,0,0,1,0,52l-48,161.29C38.58,902.84,160.52,884.68,178.73,861l48-65q16-20.79,45.36-20.8H531q13.35,0,18.67,7.8t0,18.21L389.54,1282.47Z"/></svg>