<?xml version="1.0" encoding="utf-8"?>
<!-- Generator: Adobe Illustrator 19.0.0, SVG Export Plug-In . SVG Version: 6.00 Build 0)  -->
<svg version="1.1" id="Layer_1" xmlns="http://www.w3.org/2000/svg" xmlns:xlink="http://www.w3.org/1999/xlink" x="0px" y="0px"
	 viewBox="-280 372 50 50" style="enable-background:new -280 372 50 50;" xml:space="preserve">
<style type="text/css">
	.st0{fill:none;stroke:#6C7279;stroke-width:2.5;stroke-miterlimit:10;}
</style>
<path class="st0" d="M-235.5,392.7l-16.6-14.7c-0.1-0.1-0.4-0.1-0.5-0.1c-0.2,0.1-0.3,0.2-0.3,0.4l0,7c-8.4,0.1-21.8,7.4-21.8,30.3
	c0,0.2,0.2,0.4,0.4,0.4c0,0,0,0,0.1,0c0.2,0,0.4-0.1,0.4-0.3c3-10.1,13.5-15,19.5-15c0.6,0,1,0,1.3,0l0,7.1c0,0.2,0.1,0.3,0.3,0.4
	c0.2,0.1,0.4,0,0.5-0.1l16.6-14.7C-235.3,393.2-235.3,392.9-235.5,392.7z"/>
</svg>
