<?xml version="1.0" encoding="utf-8"?>
<!-- Generator: Adobe Illustrator 23.0.4, SVG Export Plug-In . SVG Version: 6.00 Build 0)  -->
<svg version="1.1" id="Layer_1" xmlns="http://www.w3.org/2000/svg" xmlns:xlink="http://www.w3.org/1999/xlink" x="0px" y="0px"
	 viewBox="0 0 24 24" style="enable-background:new 0 0 24 24;" xml:space="preserve">
<style type="text/css">
	.st0{fill-rule:evenodd;clip-rule:evenodd;fill:#FFFFFF;}
</style>
<title>icons/20p/home/filled</title>
<desc>Created with Sketch.</desc>
<path class="st0" d="M14.5,21v-3.6c0-1.4-1.1-2.5-2.5-2.5S9.5,16,9.5,17.4V21c0,0.6-0.4,1-1,1H5c-0.5,0-1-0.4-1-0.9l-1-11
	c0-0.3,0.1-0.6,0.3-0.9l8-7c0.4-0.3,0.9-0.3,1.3,0l8,7c0.2,0.2,0.4,0.5,0.3,0.9l-1,11c0,0.5-0.5,0.9-1,0.9h-3.5
	C15,22,14.5,21.6,14.5,21z"/>
</svg>
