<?xml version="1.0" encoding="utf-8"?>
<!-- Generator: Adobe Illustrator 24.1.0, SVG Export Plug-In . SVG Version: 6.00 Build 0)  -->
<svg version="1.1" id="Layer_1" xmlns="http://www.w3.org/2000/svg" xmlns:xlink="http://www.w3.org/1999/xlink" x="0px" y="0px"
	 viewBox="0 0 60 60" style="enable-background:new 0 0 60 60;" xml:space="preserve">
<style type="text/css">
	.st0{fill-rule:evenodd;clip-rule:evenodd;fill:#FFFFFF;}
</style>
<g>
	<path id="Rectangle_15_" class="st0" d="M16.7,10h40c1.8,0,3.3,1.5,3.3,3.3l0,0c0,1.8-1.5,3.3-3.3,3.3h-40c-1.8,0-3.3-1.5-3.3-3.3
		l0,0C13.3,11.5,14.8,10,16.7,10z"/>
	<path id="Rectangle_14_" class="st0" d="M3.3,10L3.3,10c1.8,0,3.3,1.5,3.3,3.3l0,0c0,1.8-1.5,3.3-3.3,3.3l0,0
		c-1.8,0-3.3-1.5-3.3-3.3l0,0C0,11.5,1.5,10,3.3,10z"/>
	<path id="Rectangle_13_" class="st0" d="M3.3,26.7L3.3,26.7c1.8,0,3.3,1.5,3.3,3.3l0,0c0,1.8-1.5,3.3-3.3,3.3l0,0
		C1.5,33.3,0,31.8,0,30l0,0C0,28.2,1.5,26.7,3.3,26.7z"/>
	<path id="Rectangle_12_" class="st0" d="M3.3,43.3L3.3,43.3c1.8,0,3.3,1.5,3.3,3.3l0,0c0,1.8-1.5,3.3-3.3,3.3l0,0
		C1.5,50,0,48.5,0,46.7l0,0C0,44.8,1.5,43.3,3.3,43.3z"/>
	<path id="Rectangle_11_" class="st0" d="M16.7,26.7h40c1.8,0,3.3,1.5,3.3,3.3l0,0c0,1.8-1.5,3.3-3.3,3.3h-40
		c-1.8,0-3.3-1.5-3.3-3.3l0,0C13.3,28.2,14.8,26.7,16.7,26.7z"/>
	<path id="Rectangle_10_" class="st0" d="M16.7,43.3h40c1.8,0,3.3,1.5,3.3,3.3l0,0c0,1.8-1.5,3.3-3.3,3.3h-40
		c-1.8,0-3.3-1.5-3.3-3.3l0,0C13.3,44.8,14.8,43.3,16.7,43.3z"/>
</g>
</svg>
