<?xml version="1.0" encoding="utf-8"?>
<!-- Generator: Adobe Illustrator 23.0.4, SVG Export Plug-In . SVG Version: 6.00 Build 0)  -->
<svg version="1.1" id="Layer_1" xmlns="http://www.w3.org/2000/svg" xmlns:xlink="http://www.w3.org/1999/xlink" x="0px" y="0px"
	 viewBox="0 0 24 24" style="enable-background:new 0 0 24 24;" xml:space="preserve">
<style type="text/css">
	.st0{fill:#FFFFFF;}
</style>
<path class="st0" d="M12.9,21.5c0,0.3-0.2,0.5-0.5,0.5h-2c-0.3,0-0.5-0.2-0.5-0.5V3c0-0.3,0.2-0.5,0.5-0.5h2c0.3,0,0.5,0.2,0.5,0.5
	V21.5z"/>
<path class="st0" d="M3.8,5.3C3.8,5,4,4.8,4.3,4.8h2c0.3,0,0.5,0.2,0.5,0.5v16.2c0,0.3-0.2,0.5-0.5,0.5h-2c-0.3,0-0.5-0.2-0.5-0.5
	C3.8,21.5,3.8,5.3,3.8,5.3z"/>
<path class="st0" d="M14.9,5.6c0-0.3,0.1-0.5,0.4-0.6l1.9-0.3c0.3,0,0.5,0.1,0.6,0.4l2.4,16c0,0.3-0.1,0.5-0.4,0.6L17.9,22
	c-0.3,0-0.5-0.1-0.6-0.4L14.9,5.6z"/>
</svg>
