<?xml version="1.0" encoding="utf-8"?>
<!-- Generator: Adobe Illustrator 24.1.0, SVG Export Plug-In . SVG Version: 6.00 Build 0)  -->
<svg version="1.1" id="Layer_3" xmlns="http://www.w3.org/2000/svg" xmlns:xlink="http://www.w3.org/1999/xlink" x="0px" y="0px"
	 viewBox="0 0 400 400" style="enable-background:new 0 0 400 400;" xml:space="preserve">
<style type="text/css">
	.st0{fill:#FFFFFF;}
</style>
<g>
	<g>
		<path class="st0" d="M304.2,256.5v141.6H30.4v-356h131l-22.3,27.3H57.8v301.3h219.1V262.3L304.2,256.5z"/>
	</g>
</g>
<g>
	<g>
		<path class="st0" d="M304.2,256.5v141.6H30.4v-356h131l-22.3,27.3H57.8v301.3h219.1V262.3L304.2,256.5z"/>
	</g>
</g>
<g>
	<rect x="98.8" y="288.5" class="st0" width="136.9" height="27.4"/>
</g>
<g>
	<polyline class="st0" points="194.7,261.1 98.8,261.1 98.8,233.7 163.9,233.7 	"/>
</g>
<g>
	<polyline class="st0" points="136.4,206.3 98.8,206.3 98.8,178.9 124.9,178.9 	"/>
</g>
<g>
	<path class="st0" d="M250.8,278.1c-76.2,0-138.1-62-138.1-138.1c0-76.2,62-138.1,138.1-138.1C327,1.9,389,63.9,389,140
		C389,216.2,327,278.1,250.8,278.1z M250.8,29.2c-61.1,0-110.7,49.7-110.7,110.8s49.7,110.7,110.7,110.7
		c61.1,0,110.8-49.7,110.8-110.7C361.5,78.9,311.8,29.2,250.8,29.2z"/>
</g>
<g>
	<polygon class="st0" points="230.3,204.8 163.8,138.3 183.2,118.9 230.3,166.1 311.5,84.9 330.8,104.2 	"/>
</g>
</svg>
