<?xml version="1.0" encoding="utf-8"?>
<!-- Generator: Adobe Illustrator 23.0.4, SVG Export Plug-In . SVG Version: 6.00 Build 0)  -->
<svg version="1.1" id="Layer_1" xmlns="http://www.w3.org/2000/svg" xmlns:xlink="http://www.w3.org/1999/xlink" x="0px" y="0px"
	 viewBox="0 0 24 24" style="enable-background:new 0 0 24 24;" xml:space="preserve">
<style type="text/css">
	.st0{fill:#FFFFFF;}
</style>
<title>icons/20p/search/empty</title>
<desc>Created with Sketch.</desc>
<g transform="translate(1.000000, 1.000000)">
	<g id="Mask">
		<path class="st0" d="M9,14.5c3,0,5.5-2.5,5.5-5.5S12,3.5,9,3.5S3.5,6,3.5,9S6,14.5,9,14.5z M15,13.6l0.1,0.1l4.2,4.2
			c0.4,0.4,0.4,1,0,1.4s-1,0.4-1.4,0l-4.2-4.2L13.6,15c-1.3,1-2.8,1.5-4.6,1.5c-4.1,0-7.5-3.4-7.5-7.5S4.9,1.5,9,1.5
			s7.5,3.4,7.5,7.5C16.5,10.7,15.9,12.3,15,13.6L15,13.6z"/>
	</g>
</g>
</svg>
