<?xml version="1.0" encoding="utf-8"?>
<!-- Generator: Adobe Illustrator 23.0.4, SVG Export Plug-In . SVG Version: 6.00 Build 0)  -->
<svg version="1.1" id="Layer_1" xmlns="http://www.w3.org/2000/svg" xmlns:xlink="http://www.w3.org/1999/xlink" x="0px" y="0px"
	 viewBox="0 0 24 24" style="enable-background:new 0 0 24 24;" xml:space="preserve">
<style type="text/css">
	.st0{opacity:0.9;}
	.st1{fill:#FFFFFF;}
</style>
<title>icons/20p/search/empty</title>
<desc>Created with Sketch.</desc>
<g transform="translate(1.000000, 1.000000)" class="st0">
	<g id="Mask">
		<path class="st1" d="M9.5,15.5c3.6,0,6.5-2.9,6.5-6.5s-2.9-6.5-6.5-6.5S3,5.4,3,9S5.9,15.5,9.5,15.5z M14.9,14.2l4.9,4.9
			c0.2,0.2,0.2,0.5,0,0.7s-0.5,0.2-0.7,0l-4.9-4.9l0,0c-1.3,1-2.9,1.6-4.7,1.6C5.4,16.5,2,13.1,2,9s3.4-7.5,7.5-7.5S17,4.9,17,9
			C17,11,16.2,12.9,14.9,14.2L14.9,14.2z"/>
	</g>
</g>
</svg>
