<?xml version="1.0" encoding="utf-8"?>
<!-- Generator: Adobe Illustrator 24.1.0, SVG Export Plug-In . SVG Version: 6.00 Build 0)  -->
<svg version="1.1" id="Layer_1" xmlns="http://www.w3.org/2000/svg" xmlns:xlink="http://www.w3.org/1999/xlink" x="0px" y="0px"
	 viewBox="0 0 50 50" style="enable-background:new 0 0 50 50;" xml:space="preserve">
<style type="text/css">
	.st0{fill:#F8063F;stroke:#F8063F;stroke-width:1.5;}
</style>
<g id="iOS-Player-_x28_Native_x29__1_">
	<g id="Player-Version-2.1_1_" transform="translate(-111.000000, -629.000000)">
		<path id="btn_like_suggestion_1_" class="st0" d="M135.98,673.09l-1.51-1.21c-9.05-7.19-14.51-11.53-17.61-17.2
			c-2.29-4.15-2.91-8.25-1.78-11.86c0.94-3,3.07-5.44,5.99-6.82c1.51-0.72,3.13-1.08,4.86-1.08c4.1,0,7.96,2.11,10.06,5.37
			c2.1-3.26,5.96-5.37,10.06-5.37c1.72,0,3.35,0.37,4.86,1.08c2.93,1.4,5.06,3.82,5.99,6.82c1.13,3.59,0.51,7.69-1.78,11.86
			c-3.12,5.66-8.58,10.02-17.65,17.2L135.98,673.09z"/>
	</g>
</g>
</svg>
