<?xml version="1.0" encoding="utf-8"?>
<!-- Generator: Adobe Illustrator 24.1.0, SVG Export Plug-In . SVG Version: 6.00 Build 0)  -->
<svg version="1.1" id="Layer_1" xmlns="http://www.w3.org/2000/svg" xmlns:xlink="http://www.w3.org/1999/xlink" x="0px" y="0px"
	 viewBox="0 0 500 500" style="enable-background:new 0 0 500 500;" xml:space="preserve">
<style type="text/css">
	.st0{fill:#FFFFFF;}
</style>
<g>
	<path class="st0" d="M424.4,141.5h-67.5l-40.4-40.8c0,0-0.2-0.2-0.3-0.2l-0.2-0.2l0,0c-6-6-14.1-9.8-23.3-9.8h-84
		c-9.8,0-18.5,4.2-24.6,10.9v0.1l-39.5,40h-69C57,141.5,42,156.1,42,174.7v202.1c0,18.6,15,33.7,33.6,33.7h348.8
		c18.5,0,33.6-15.1,33.6-33.7V174.7C458,156.1,442.9,141.5,424.4,141.5z M250,360c-50.9,0-92.4-41.6-92.4-92.6
		c0-51.1,41.5-92.6,92.4-92.6c51,0,92.4,41.5,92.4,92.6C342.4,318.4,301,360,250,360z M418.1,195c-7.7,0-14-6.3-14-14.1
		c0-7.8,6.3-14.1,14-14.1s14,6.3,14,14.1C432.1,188.7,425.8,195,418.1,195z"/>
	<path class="st0" d="M250,197.4c-38.6,0-69.8,31.3-69.8,70c0,38.6,31.2,70,69.8,70c38.5,0,69.8-31.3,69.8-70S288.5,197.4,250,197.4
		z"/>
</g>
</svg>
