<?xml version="1.0" encoding="utf-8"?>
<!-- Generator: Adobe Illustrator 23.0.4, SVG Export Plug-In . SVG Version: 6.00 Build 0)  -->
<svg version="1.1" id="Layer_1" xmlns="http://www.w3.org/2000/svg" xmlns:xlink="http://www.w3.org/1999/xlink" x="0px" y="0px"
	 viewBox="0 0 24 24" style="enable-background:new 0 0 24 24;" xml:space="preserve">
<style type="text/css">
	.st0{fill:#FFFFFF;}
</style>
<title>icons/20p/home/filled</title>
<desc>Created with Sketch.</desc>
<g>
	<path class="st0" d="M4.3,9c-1.7,0-3,1.4-3,3s1.4,3,3,3s3-1.4,3-3S5.9,9,4.3,9z M4.3,13.7c-1,0-1.8-0.8-1.8-1.8s0.8-1.8,1.8-1.8
		S6.1,11,6.1,12S5.2,13.7,4.3,13.7z"/>
	<path class="st0" d="M12,9c-1.7,0-3,1.4-3,3s1.4,3,3,3s3-1.4,3-3S13.6,9,12,9z M12,13.7c-1,0-1.8-0.8-1.8-1.8s0.8-1.8,1.8-1.8
		s1.8,0.8,1.8,1.8S12.9,13.7,12,13.7z"/>
	<path class="st0" d="M19.6,9c-1.7,0-3,1.4-3,3s1.4,3,3,3s3-1.4,3-3S21.3,9,19.6,9z M19.6,13.7c-1,0-1.8-0.8-1.8-1.8
		s0.8-1.8,1.8-1.8s1.8,0.8,1.8,1.8S20.6,13.7,19.6,13.7z"/>
</g>
<circle class="st0" cx="4.3" cy="12.1" r="2.2"/>
<circle class="st0" cx="12" cy="12" r="2.2"/>
<circle class="st0" cx="19.7" cy="11.9" r="2.2"/>
</svg>
