<?xml version="1.0" encoding="UTF-8"?>
<svg width="17px" height="17px" viewBox="0 0 17 17" version="1.1" xmlns="http://www.w3.org/2000/svg" xmlns:xlink="http://www.w3.org/1999/xlink">
    <!-- Generator: Sketch 61.2 (89653) - https://sketch.com -->
    <title>iconfinder_pen-15_513929</title>
    <desc>Created with Sketch.</desc>
    <g id="iOS-Player-(Native)" stroke="none" stroke-width="1" fill="none" fill-rule="evenodd">
        <g id="Player-Version-2.1---iPhone-11-with-commenting-function" transform="translate(-261.000000, -770.000000)" fill="#666666" fill-rule="nonzero">
            <g id="iconfinder_pen-15_513929" transform="translate(261.000000, 770.000000)">
                <path d="M16.378252,5.13040404 L15.6270428,5.88215453 L11.1187255,1.37430786 L11.8699346,0.622557378 C12.7,-0.207519126 14.0457351,-0.207519126 14.8758005,0.622557378 L16.3782188,2.1255271 C17.2072549,2.95510556 17.2072549,4.30032754 16.378252,5.13040404 Z M5.85923215,14.1455661 C5.65171581,14.3530852 5.65171581,14.6892662 5.85923215,14.8967854 C6.06674849,15.1053338 6.40292495,15.1053338 6.61044129,14.8967854 L14.8758337,6.63337376 L14.1235953,5.88162328 L5.85923215,14.1455661 Z M2.10215712,10.3894699 C1.89464078,10.5969891 1.89464078,10.9331701 2.10215712,11.1406892 C2.30967346,11.3482083 2.64584993,11.3482083 2.85336627,11.1406892 L11.1187255,2.87674633 L10.3675163,2.1255271 L2.10215712,10.3894699 Z M11.8689053,3.62746752 L3.60457542,11.8919084 C3.18954274,12.3059174 3.19057202,12.9793086 3.60457542,13.3943469 C4.0196081,13.8093851 4.69196104,13.8114769 5.108023,13.3933176 L13.3723529,5.13043725 L11.8689053,3.62746752 Z M5.10596443,15.645946 C4.85176522,15.3917434 4.72931398,15.0690428 4.68366038,14.7370122 C4.57575189,14.7536138 4.46681411,14.769186 4.35578457,14.769186 C3.78821908,14.769186 3.25491869,14.5471239 2.85336627,14.1455993 C2.45181385,13.7430122 2.23081725,13.210734 2.23081725,12.6431609 C2.23081725,12.5394013 2.24638928,12.4387628 2.26089882,12.3380911 C1.91745098,12.2914076 1.59996758,12.1409314 1.35094797,11.8919084 C1.32707529,11.8680354 1.31877464,11.8358616 1.29699372,11.8099301 L0,17 L5.17648679,15.7040514 C5.15367659,15.6832994 5.12774535,15.6677272 5.10596443,15.645946 Z" id="Shape"></path>
            </g>
        </g>
    </g>
</svg>