<?xml version="1.0" encoding="UTF-8"?>
<svg width="29px" height="26px" viewBox="0 0 29 26" version="1.1" xmlns="http://www.w3.org/2000/svg" xmlns:xlink="http://www.w3.org/1999/xlink">
    <!-- Generator: Sketch 61.2 (89653) - https://sketch.com -->
    <title>btn_like_suggestion</title>
    <desc>Created with Sketch.</desc>
    <g id="iOS-Player-(Native)" stroke="none" stroke-width="1" fill="none" fill-rule="evenodd">
        <g id="Player-Version-2.1" transform="translate(-111.000000, -629.000000)" stroke="#FFFFFF" stroke-width="1.2">
            <path d="M125.500161,654 L124.546159,653.241188 C118.855149,648.716368 115.418643,645.98819 113.46264,642.425909 C112.022637,639.811404 111.637137,637.232331 112.345138,634.969183 C112.939139,633.076582 114.277141,631.551578 116.116144,630.677616 C117.062646,630.227348 118.090148,630 119.17315,630 C121.753154,630 124.181658,631.325706 125.500161,633.380698 C126.818663,631.325706 129.250167,630 131.827172,630 C132.910174,630 133.937676,630.227348 134.882677,630.67614 C136.72318,631.551578 138.061183,633.076582 138.655184,634.969183 C139.363185,637.232331 138.976184,639.811404 137.537682,642.425909 C135.580178,645.989666 132.140672,648.722273 126.442162,653.250046 L125.500161,654 Z" id="btn_like_suggestion"></path>
        </g>
    </g>
</svg>