<svg id="Layer_1" data-name="Layer 1" xmlns="http://www.w3.org/2000/svg" viewBox="0 0 2025.93 2025.93"><defs><style>.cls-1{fill:#fff;stroke:#fff;}.cls-1,.cls-2{stroke-width:4.74px;}.cls-2{fill:#333;stroke:#000;stroke-opacity:0;}</style></defs><title>icon-close-white</title><path id="svg_8" data-name="svg 8" class="cls-1" d="M1024,89.32c126.21,0,248.62,24.67,363.91,73.54,111.5,47,211.13,114.35,297,200.22a932.23,932.23,0,0,1,200.22,297c48.87,115.29,73.54,237.7,73.54,363.91s-24.67,248.62-73.54,363.91c-47,111.5-114.35,211.13-200.22,297a932.23,932.23,0,0,1-297,200.22c-115.29,48.87-237.7,73.54-363.91,73.54S775.38,1934,660.09,1885.14c-111.5-47-211.13-114.35-297-200.22a932.23,932.23,0,0,1-200.22-297C114,1272.62,89.32,1150.21,89.32,1024S114,775.38,162.86,660.09c47-111.5,114.35-211.13,200.22-297a932.23,932.23,0,0,1,297-200.22C775.38,114,897.79,89.32,1024,89.32m0-75.91C466,13.41,13.41,466,13.41,1024S466,2034.59,1024,2034.59,2034.59,1582,2034.59,1024,1582,13.41,1024,13.41Z" transform="translate(-11.04 -11.04)"/><circle id="svg_12" data-name="svg 12" class="cls-1" cx="1012.96" cy="1012.96" r="945.59"/><path id="svg_7" data-name="svg 7" class="cls-2" d="M1077.61,1024l383.84-383.84a37.91,37.91,0,0,0-53.61-53.61L1024,970.39,640.17,586.55a37.91,37.91,0,0,0-53.62,53.61L970.39,1024,586.55,1407.84a38.08,38.08,0,0,0,0,53.61,37.24,37.24,0,0,0,27.05,10.91,39.24,39.24,0,0,0,27-10.91l383.83-383.84,383.84,383.84a37.23,37.23,0,0,0,27,10.91,39.24,39.24,0,0,0,27.05-10.91,38.08,38.08,0,0,0,0-53.61L1077.61,1024Z" transform="translate(-11.04 -11.04)"/></svg>