<?xml version="1.0" encoding="utf-8"?>
<!-- Generator: Adobe Illustrator 23.0.4, SVG Export Plug-In . SVG Version: 6.00 Build 0)  -->
<svg version="1.1" id="Layer_1" xmlns="http://www.w3.org/2000/svg" xmlns:xlink="http://www.w3.org/1999/xlink" x="0px" y="0px"
	 viewBox="0 0 24 24" style="enable-background:new 0 0 24 24;" xml:space="preserve">
<style type="text/css">
	.st0{opacity:0.9;}
	.st1{fill:#FFFFFF;}
</style>
<title>icons/20p/home/filled</title>
<desc>Created with Sketch.</desc>
<g id="Symbols" class="st0">
	<path class="st1" d="M12,3l-8,7c0,0,0.3,3.7,1,11c0,0,1.2,0,3.5,0v-3.6c0-2,1.6-3.5,3.5-3.5s3.5,1.6,3.5,3.5V21H19
		c0,0,0.3-3.7,1-11C20,10,17.3,7.7,12,3z M14.5,17.4c0-1.4-1.1-2.5-2.5-2.5S9.5,16,9.5,17.4V21c0,0.6-0.4,1-1,1H5
		c-0.5,0-1-0.4-1-0.9l-1-11c0-0.3,0.1-0.6,0.3-0.9l8-7c0.4-0.3,0.9-0.3,1.3,0l8,7c0.2,0.2,0.4,0.5,0.3,0.9l-1,11
		c0,0.5-0.5,0.9-1,0.9h-3.5c-0.6,0-1-0.4-1-1v-3.6H14.5z"/>
</g>
</svg>
