<?xml version="1.0" encoding="utf-8"?>
<!-- Generator: Adobe Illustrator 23.0.4, SVG Export Plug-In . SVG Version: 6.00 Build 0)  -->
<svg version="1.1" id="Layer_1" xmlns="http://www.w3.org/2000/svg" xmlns:xlink="http://www.w3.org/1999/xlink" x="0px" y="0px"
	 viewBox="0 0 40 40" style="enable-background:new 0 0 40 40;" xml:space="preserve">
<style type="text/css">
	.st0{fill-rule:evenodd;clip-rule:evenodd;fill:#FFFFFF;}
</style>
<g>
	<title>Layer 1</title>
	<path id="svg_1_1_" class="st0" d="M28.1,12.2c4.4,4.4,4.4,11.5,0,15.9s-11.5,4.4-15.9,0c-4.4-4.4-4.4-11.5,0-15.9
		C16.6,7.8,23.7,7.8,28.1,12.2L28.1,12.2z M21.9,12c-0.4,0-0.9,0.2-1.2,0.5c-0.3,0.3-0.5,0.7-0.5,1.2c0,0.4,0.2,0.9,0.5,1.2
		c0.3,0.3,0.7,0.5,1.2,0.5s0.9-0.2,1.2-0.5c0.3-0.3,0.5-0.7,0.5-1.2c0-0.4-0.2-0.9-0.5-1.2S22.3,12,21.9,12L21.9,12z M22.6,17.3
		h-0.7L18,18l-0.1,0.4c0.2,0,0.3,0,0.4,0c0.2,0,0.4,0.1,0.6,0.2c0.1,0.1,0.2,0.3,0.2,0.4c0,0.2-0.1,0.7-0.2,1.2l-1.6,5.5
		c-0.1,0.4-0.2,0.8-0.2,1.1c0,0.4,0.1,0.8,0.4,1.1c0.3,0.2,0.7,0.4,1.2,0.4c1.3,0,2.6-1,3.7-3L22,25c-0.5,0.7-0.9,1.2-1.2,1.6
		c-0.1,0.1-0.2,0.2-0.4,0.2c-0.1,0-0.1-0.1-0.2-0.1c-0.1-0.1-0.1-0.1-0.1-0.2c0-0.1,0.1-0.4,0.2-0.9C20.2,25.5,22.6,17.3,22.6,17.3z
		"/>
</g>
</svg>
