<svg xmlns="http://www.w3.org/2000/svg" width="92" height="83" viewBox="0 0 92 83">
  <metadata><?xpacket begin="﻿" id="W5M0MpCehiHzreSzNTczkc9d"?>
<x:xmpmeta xmlns:x="adobe:ns:meta/" x:xmptk="Adobe XMP Core 5.6-c138 79.159824, 2016/09/14-01:09:01        ">
   <rdf:RDF xmlns:rdf="http://www.w3.org/1999/02/22-rdf-syntax-ns#">
      <rdf:Description rdf:about=""/>
   </rdf:RDF>
</x:xmpmeta>
                                                                                                    
                                                                                                    
                                                                                                    
                                                                                                    
                                                                                                    
                                                                                                    
                                                                                                    
                                                                                                    
                                                                                                    
                                                                                                    
                                                                                                    
                                                                                                    
                                                                                                    
                                                                                                    
                                                                                                    
                                                                                                    
                                                                                                    
                                                                                                    
                                                                                                    
                                                                                                    
                           
<?xpacket end="w"?></metadata>
<defs>
    <style>
      .cls-1 {
        fill: #fff;
        fill-rule: evenodd;
      }
    </style>
  </defs>
  <path id="Forma_1" data-name="Forma 1" class="cls-1" d="M45.992,3.989a38,38,0,1,0,38,38A38.005,38.005,0,0,0,45.992,3.989Zm7.911,58.9q-2.931,1.155-4.681,1.763a12.342,12.342,0,0,1-4.059.609,8.12,8.12,0,0,1-5.525-1.734,5.6,5.6,0,0,1-1.965-4.4,16.093,16.093,0,0,1,.144-2.121c0.1-.719.258-1.53,0.473-2.441l2.449-8.646c0.215-.836.4-1.624,0.55-2.358a10.445,10.445,0,0,0,.218-2.036,3.131,3.131,0,0,0-.682-2.306,3.869,3.869,0,0,0-2.615-.647,6.847,6.847,0,0,0-1.947.289c-0.66.2-1.233,0.386-1.7,0.567l0.647-2.664q2.4-.98,4.6-1.676a13.592,13.592,0,0,1,4.151-.7A7.947,7.947,0,0,1,49.4,36.091a5.669,5.669,0,0,1,1.91,4.427q0,0.566-.132,1.986a13.37,13.37,0,0,1-.49,2.611l-2.435,8.621q-0.3,1.041-.537,2.366a12.445,12.445,0,0,0-.236,2.02,2.9,2.9,0,0,0,.77,2.34,4.307,4.307,0,0,0,2.658.625,7.577,7.577,0,0,0,2.017-.317,11.2,11.2,0,0,0,1.627-.547Zm-0.43-35a5.817,5.817,0,0,1-4.1,1.582,5.882,5.882,0,0,1-4.117-1.582,5.163,5.163,0,0,1,0-7.687,5.835,5.835,0,0,1,4.118-1.6,5.771,5.771,0,0,1,4.1,1.6A5.182,5.182,0,0,1,53.472,27.891Z"/>
</svg>
