<svg xmlns="http://www.w3.org/2000/svg" width="39.996" height="39.996" viewBox="0 0 167 167">
  <metadata><?xpacket begin="﻿" id="W5M0MpCehiHzreSzNTczkc9d"?>
<x:xmpmeta xmlns:x="adobe:ns:meta/" x:xmptk="Adobe XMP Core 5.6-c138 79.159824, 2016/09/14-01:09:01        ">
   <rdf:RDF xmlns:rdf="http://www.w3.org/1999/02/22-rdf-syntax-ns#">
      <rdf:Description rdf:about=""/>
   </rdf:RDF>
</x:xmpmeta>
                                                                                                    
                                                                                                    
                                                                                                    
                                                                                                    
                                                                                                    
                                                                                                    
                                                                                                    
                                                                                                    
                                                                                                    
                                                                                                    
                                                                                                    
                                                                                                    
                                                                                                    
                                                                                                    
                                                                                                    
                                                                                                    
                                                                                                    
                                                                                                    
                                                                                                    
                                                                                                    
                           
<?xpacket end="w"?></metadata>
<defs>
    <style>
      .cls-1 {
        fill: #fff;
        fill-rule: evenodd;
      }
    </style>
  </defs>
  <path class="cls-1" d="M116.5,51H51.516A10.57,10.57,0,0,0,41,61.605V106.4A10.57,10.57,0,0,0,51.516,117h64.967A10.57,10.57,0,0,0,127,106.4V61.623A10.559,10.559,0,0,0,116.5,51Zm5.712,55.4a5.742,5.742,0,0,1-5.712,5.76H51.516A5.743,5.743,0,0,1,45.8,106.4V61.623a5.743,5.743,0,0,1,5.712-5.76h64.967a5.743,5.743,0,0,1,5.712,5.76V106.4h0.017ZM95.236,83.444l21.033-19.021A2.448,2.448,0,0,0,116.447,61a2.4,2.4,0,0,0-3.4-.179l-29,26.253-5.659-5.1a0.1,0.1,0,0,1-.036-0.054,3.563,3.563,0,0,0-.392-0.341L54.933,60.8a2.385,2.385,0,0,0-3.4.2,2.434,2.434,0,0,0,.2,3.427L73.012,83.605,51.819,103.613a2.431,2.431,0,0,0,1.655,4.2,2.4,2.4,0,0,0,1.637-.646L76.624,86.871l5.837,5.258a2.381,2.381,0,0,0,3.2-.018l6-5.419,21.388,20.492a2.4,2.4,0,0,0,3.4-.089,2.447,2.447,0,0,0-.089-3.428Z"/>
</svg>
