<svg xmlns="http://www.w3.org/2000/svg" width="40" height="40" viewBox="0 0 40 40">
  <metadata><?xpacket begin="﻿" id="W5M0MpCehiHzreSzNTczkc9d"?>
<x:xmpmeta xmlns:x="adobe:ns:meta/" x:xmptk="Adobe XMP Core 5.6-c138 79.159824, 2016/09/14-01:09:01        ">
   <rdf:RDF xmlns:rdf="http://www.w3.org/1999/02/22-rdf-syntax-ns#">
      <rdf:Description rdf:about=""/>
   </rdf:RDF>
</x:xmpmeta>
                                                                                                    
                                                                                                    
                                                                                                    
                                                                                                    
                                                                                                    
                                                                                                    
                                                                                                    
                                                                                                    
                                                                                                    
                                                                                                    
                                                                                                    
                                                                                                    
                                                                                                    
                                                                                                    
                                                                                                    
                                                                                                    
                                                                                                    
                                                                                                    
                                                                                                    
                                                                                                    
                           
<?xpacket end="w"?></metadata>
<defs>
    <style>
      .cls-1 {
        fill: #fff;
        fill-rule: evenodd;
      }
    </style>
  </defs>
  <path id="Forma_1" data-name="Forma 1" class="cls-1" d="M28.339,24.67L26.2,22.607a7.562,7.562,0,0,1-2.048-3.479l-0.577-2.154a6.234,6.234,0,0,0-5.84-4.61l-0.413-1.542a1.779,1.779,0,1,0-3.437.921L14.3,13.285A6.234,6.234,0,0,0,11.55,20.2l0.577,2.154a7.567,7.567,0,0,1-.034,4.036l-0.816,2.854a0.446,0.446,0,0,0,.542.553L28.144,25.42A0.445,0.445,0,0,0,28.339,24.67Zm-10.832,4.52a3.095,3.095,0,0,0,5.411-1.45Z"/>
</svg>
