<svg xmlns="http://www.w3.org/2000/svg" width="40" height="40" viewBox="0 0 40 40">
  <metadata><?xpacket begin="﻿" id="W5M0MpCehiHzreSzNTczkc9d"?>
<x:xmpmeta xmlns:x="adobe:ns:meta/" x:xmptk="Adobe XMP Core 5.6-c138 79.159824, 2016/09/14-01:09:01        ">
   <rdf:RDF xmlns:rdf="http://www.w3.org/1999/02/22-rdf-syntax-ns#">
      <rdf:Description rdf:about=""/>
   </rdf:RDF>
</x:xmpmeta>
                                                                                                    
                                                                                                    
                                                                                                    
                                                                                                    
                                                                                                    
                                                                                                    
                                                                                                    
                                                                                                    
                                                                                                    
                                                                                                    
                                                                                                    
                                                                                                    
                                                                                                    
                                                                                                    
                                                                                                    
                                                                                                    
                                                                                                    
                                                                                                    
                                                                                                    
                                                                                                    
                           
<?xpacket end="w"?></metadata>
<defs>
    <style>
      .cls-1 {
        fill: #fff;
        fill-rule: evenodd;
      }
    </style>
  </defs>
  <path id="Forma_1" data-name="Forma 1" class="cls-1" d="M30.485,12.519A1.675,1.675,0,0,0,29.25,12H11.75a1.676,1.676,0,0,0-1.236.52A1.716,1.716,0,0,0,10,13.77V26.23a1.716,1.716,0,0,0,.514,1.251A1.675,1.675,0,0,0,11.75,28h17.5a1.675,1.675,0,0,0,1.236-.52A1.716,1.716,0,0,0,31,26.23V13.77A1.716,1.716,0,0,0,30.485,12.519ZM29.6,26.23a0.343,0.343,0,0,1-.1.249,0.335,0.335,0,0,1-.246.1H11.75a0.335,0.335,0,0,1-.246-0.105,0.343,0.343,0,0,1-.1-0.249V18.5H29.6v7.73Zm0-10.981H11.4V13.77a0.342,0.342,0,0,1,.1-0.249,0.335,0.335,0,0,1,.246-0.105h17.5a0.334,0.334,0,0,1,.246.105,0.343,0.343,0,0,1,.1.249v1.479h0Zm-16.8,8.5h2.8v1.417H12.8V23.751Zm4.2,0h4.2v1.417H17V23.751Z"/>
</svg>
