<svg xmlns="http://www.w3.org/2000/svg" width="40" height="40" viewBox="0 0 40 40">
  <metadata><?xpacket begin="﻿" id="W5M0MpCehiHzreSzNTczkc9d"?>
<x:xmpmeta xmlns:x="adobe:ns:meta/" x:xmptk="Adobe XMP Core 5.6-c138 79.159824, 2016/09/14-01:09:01        ">
   <rdf:RDF xmlns:rdf="http://www.w3.org/1999/02/22-rdf-syntax-ns#">
      <rdf:Description rdf:about=""/>
   </rdf:RDF>
</x:xmpmeta>
                                                                                                    
                                                                                                    
                                                                                                    
                                                                                                    
                                                                                                    
                                                                                                    
                                                                                                    
                                                                                                    
                                                                                                    
                                                                                                    
                                                                                                    
                                                                                                    
                                                                                                    
                                                                                                    
                                                                                                    
                                                                                                    
                                                                                                    
                                                                                                    
                                                                                                    
                                                                                                    
                           
<?xpacket end="w"?></metadata>
<defs>
    <style>
      .cls-1, .cls-2, .cls-3 {
        fill: #fff;
      }

      .cls-2 {
        stroke: #0b1521;
        stroke-linejoin: round;
        stroke-width: 1px;
      }

      .cls-2, .cls-3 {
        fill-rule: evenodd;
      }
    </style>
  </defs>
  <rect id="Rounded_Rectangle_1" data-name="Rounded Rectangle 1" class="cls-1" x="8" y="11" width="10" height="19" rx="5" ry="5"/>
  <path id="Rounded_Rectangle_2" data-name="Rounded Rectangle 2" class="cls-2" d="M12.167,19.335H25.056a1.108,1.108,0,1,1,0,2.214H12.167A1.108,1.108,0,1,1,12.167,19.335Z"/>
  <path id="Rounded_Rectangle_2_copy" data-name="Rounded Rectangle 2 copy" class="cls-3" d="M23.467,15.314l3.716,3.526a1.067,1.067,0,0,1,0,1.566,1.212,1.212,0,0,1-1.65,0l-3.716-3.526a1.067,1.067,0,0,1,0-1.565A1.212,1.212,0,0,1,23.467,15.314Z"/>
  <path id="Rounded_Rectangle_2_copy_2" data-name="Rounded Rectangle 2 copy 2" class="cls-3" d="M23.814,24.654l3.821-3.625a1.1,1.1,0,0,0,0-1.609,1.246,1.246,0,0,0-1.7,0l-3.821,3.625a1.1,1.1,0,0,0,0,1.609A1.246,1.246,0,0,0,23.814,24.654Z"/>
</svg>
