<svg xmlns="http://www.w3.org/2000/svg" width="40" height="40" viewBox="0 0 40 40">
  <metadata><?xpacket begin="﻿" id="W5M0MpCehiHzreSzNTczkc9d"?>
<x:xmpmeta xmlns:x="adobe:ns:meta/" x:xmptk="Adobe XMP Core 5.6-c138 79.159824, 2016/09/14-01:09:01        ">
   <rdf:RDF xmlns:rdf="http://www.w3.org/1999/02/22-rdf-syntax-ns#">
      <rdf:Description rdf:about=""/>
   </rdf:RDF>
</x:xmpmeta>
                                                                                                    
                                                                                                    
                                                                                                    
                                                                                                    
                                                                                                    
                                                                                                    
                                                                                                    
                                                                                                    
                                                                                                    
                                                                                                    
                                                                                                    
                                                                                                    
                                                                                                    
                                                                                                    
                                                                                                    
                                                                                                    
                                                                                                    
                                                                                                    
                                                                                                    
                                                                                                    
                           
<?xpacket end="w"?></metadata>
<defs>
    <style>
      .cls-1 {
        fill: #fff;
        fill-rule: evenodd;
      }
    </style>
  </defs>
  <path id="Forma_1" data-name="Forma 1" class="cls-1" d="M31.827,19.555C31.622,19.329,26.684,13,20.5,13S9.377,19.329,9.172,19.555a0.662,0.662,0,0,0,0,.889C9.377,20.671,14.315,27,20.5,27s11.122-6.329,11.328-6.555A0.662,0.662,0,0,0,31.827,19.555ZM20.5,24.667A4.667,4.667,0,1,1,25.216,20,4.7,4.7,0,0,1,20.5,24.667Zm0.674-6a1.988,1.988,0,0,1,.848-1.624,3.321,3.321,0,1,0,1.789,3.519A2.006,2.006,0,0,1,21.173,18.667Z"/>
</svg>
