<svg xmlns="http://www.w3.org/2000/svg" width="40" height="40" viewBox="0 0 40 40">
  <metadata><?xpacket begin="﻿" id="W5M0MpCehiHzreSzNTczkc9d"?>
<x:xmpmeta xmlns:x="adobe:ns:meta/" x:xmptk="Adobe XMP Core 5.6-c138 79.159824, 2016/09/14-01:09:01        ">
   <rdf:RDF xmlns:rdf="http://www.w3.org/1999/02/22-rdf-syntax-ns#">
      <rdf:Description rdf:about=""/>
   </rdf:RDF>
</x:xmpmeta>
                                                                                                    
                                                                                                    
                                                                                                    
                                                                                                    
                                                                                                    
                                                                                                    
                                                                                                    
                                                                                                    
                                                                                                    
                                                                                                    
                                                                                                    
                                                                                                    
                                                                                                    
                                                                                                    
                                                                                                    
                                                                                                    
                                                                                                    
                                                                                                    
                                                                                                    
                                                                                                    
                           
<?xpacket end="w"?></metadata>
<defs>
    <style>
      .cls-1 {
        fill: #fff;
        fill-rule: evenodd;
      }
    </style>
  </defs>
  <path class="cls-1" d="M8.708,8H31.293A2.729,2.729,0,0,1,34,10.743V24.118a2.729,2.729,0,0,1-2.708,2.743H17.154l-5.728,5.8a1.123,1.123,0,0,1-1.236.249,1.15,1.15,0,0,1-.7-1.062v-4.99H8.708A2.729,2.729,0,0,1,6,24.118V10.743A2.729,2.729,0,0,1,8.708,8ZM7.269,25.118a0.442,0.442,0,0,0,.439.445H9.622a1.14,1.14,0,0,1,1.13,1.061c0,0.025,0,4.453,0,4.453l5.12-5.173,0.013-.013c0.016-.016.031-0.03,0.046-0.042a1.121,1.121,0,0,1,.747-0.286h15.61a0.442,0.442,0,0,0,.439-0.445V9.743A0.442,0.442,0,0,0,32.293,9.3H7.708a0.442,0.442,0,0,0-.439.445V25.118ZM20,16.281a1.149,1.149,0,1,1-1.135,1.149A1.142,1.142,0,0,1,20,16.281Zm5.273,0a1.149,1.149,0,1,1-1.135,1.149A1.142,1.142,0,0,1,25.273,16.281Zm-10.544,0a1.149,1.149,0,1,1-1.135,1.149A1.142,1.142,0,0,1,14.729,16.281Z"/>
</svg>
