<svg xmlns="http://www.w3.org/2000/svg" width="22" height="20" viewBox="0 0 22 20">
  <metadata><?xpacket begin="﻿" id="W5M0MpCehiHzreSzNTczkc9d"?>
<x:xmpmeta xmlns:x="adobe:ns:meta/" x:xmptk="Adobe XMP Core 5.6-c138 79.159824, 2016/09/14-01:09:01        ">
   <rdf:RDF xmlns:rdf="http://www.w3.org/1999/02/22-rdf-syntax-ns#">
      <rdf:Description rdf:about=""/>
   </rdf:RDF>
</x:xmpmeta>
                                                                                                    
                                                                                                    
                                                                                                    
                                                                                                    
                                                                                                    
                                                                                                    
                                                                                                    
                                                                                                    
                                                                                                    
                                                                                                    
                                                                                                    
                                                                                                    
                                                                                                    
                                                                                                    
                                                                                                    
                                                                                                    
                                                                                                    
                                                                                                    
                                                                                                    
                                                                                                    
                           
<?xpacket end="w"?></metadata>
<defs>
    <style>
      .cls-1 {
        fill: #fff;
        fill-rule: evenodd;
      }
    </style>
  </defs>
  <path id="Forma_1" data-name="Forma 1" class="cls-1" d="M10.825,1.4a0.74,0.74,0,0,1,1.321,0L14.515,6.16a0.736,0.736,0,0,0,.555.4l5.3,0.763a0.734,0.734,0,0,1,.594.5,0.725,0.725,0,0,1-.186.748l-3.833,3.7a0.726,0.726,0,0,0-.212.646l0.9,5.229a0.727,0.727,0,0,1-.293.714,0.744,0.744,0,0,1-.776.056l-4.739-2.469a0.742,0.742,0,0,0-.685,0L6.4,18.912a0.743,0.743,0,0,1-.776-0.055,0.727,0.727,0,0,1-.293-0.714l0.9-5.229a0.725,0.725,0,0,0-.212-0.646l-3.833-3.7a0.725,0.725,0,0,1-.186-0.748,0.734,0.734,0,0,1,.595-0.5l5.3-.763a0.736,0.736,0,0,0,.555-0.4Z"/>
</svg>
