<?xml version="1.0" encoding="utf-8"?>
<!-- Generator: Adobe Illustrator 23.0.4, SVG Export Plug-In . SVG Version: 6.00 Build 0)  -->
<svg version="1.1" id="Layer_1" xmlns="http://www.w3.org/2000/svg" xmlns:xlink="http://www.w3.org/1999/xlink" x="0px" y="0px"
	 viewBox="0 0 40 40" style="enable-background:new 0 0 40 40;" xml:space="preserve">
<style type="text/css">
	.st0{fill:#FFFFFF;}
</style>
<path id="svg_3_1_" class="st0" d="M15.7,30.9c-0.5,0-0.9-0.2-1.2-0.5L13.1,29l0,0c-0.7,0.7-1.8,0.7-2.5,0c-0.7-0.7-0.7-1.8,0-2.5
	l9.4-9.4l-0.5-0.5c-1.6-1.6-1.6-4.2,0-5.8l0.2-0.2c0.8-0.8,1.8-1.2,2.9-1.2s2.1,0.4,2.9,1.2l3.5,3.5c0.7,0.8,1.1,1.8,1.1,2.9
	s-0.4,2.1-1.2,2.9l-0.2,0.2c-0.8,0.8-1.8,1.2-2.9,1.2s-2.1-0.4-2.9-1.2l-0.5-0.5l-4.1,4.1l0.8,0.8c0.3,0.3,0.5,0.8,0.5,1.2
	c0,0.5-0.2,0.9-0.5,1.2c-0.7,0.6-1.8,0.6-2.5,0l-0.8-0.8l-0.4,0.4l1.4,1.4c0.3,0.3,0.5,0.8,0.5,1.2c0,0.4-0.2,0.9-0.5,1.2
	C16.6,30.7,16.2,30.9,15.7,30.9z M13,27.9c0.1,0,0.2,0,0.3,0.1l1.8,1.7c0.3,0.3,0.9,0.3,1.2,0c0.2-0.2,0.3-0.4,0.3-0.6
	s-0.1-0.4-0.3-0.6l-1.4-1.4l-0.6,0.5c-0.2,0.2-0.4,0.2-0.6,0s-0.2-0.5,0-0.6l0.8-0.8l0,0l1-1c0.2-0.2,0.5-0.2,0.6,0l1.2,1
	c0.3,0.3,0.9,0.3,1.2,0c0.2-0.2,0.3-0.4,0.3-0.6s-0.1-0.4-0.3-0.6l-0.8-0.8l-0.5,0.6c-0.2,0.2-0.5,0.2-0.6,0c-0.2-0.2-0.2-0.5,0-0.6
	l4.7-4.7l0,0l0.5-0.5l-0.5-0.6c-0.2-0.2-0.2-0.5,0-0.7c0.2-0.2,0.5-0.2,0.6,0l0.8,0.8l0,0l0,0l0.8,0.8c1.2,1.2,3.3,1.2,4.5,0
	l0.2-0.2c0.6-0.6,0.9-1.4,0.9-2.2c0-0.9-0.3-1.6-0.9-2.2l0,0l-3.4-3.5c-1.2-1.2-3.3-1.2-4.5,0l-0.2,0.2c-1.2,1.2-1.2,3.3,0,4.5
	l0.8,0.8c0.2,0.2,0.2,0.5,0,0.7l-9.7,9.8c-0.3,0.3-0.3,0.9,0,1.2c0.3,0.3,0.9,0.3,1.2,0l0.4-0.4C12.8,27.9,12.9,27.9,13,27.9z
	 M25.9,18.7c-0.4,0-0.8-0.1-1.1-0.4l-1.7-1.7l0,0l-1.8-1.8c-0.3-0.3-0.4-0.7-0.4-1.1c0-0.4,0.2-0.8,0.4-1l0.2-0.2
	c0.6-0.6,1.6-0.6,2.1,0l3.5,3.4c0.3,0.3,0.4,0.7,0.4,1.1c0,0.4-0.2,0.8-0.4,1.1l0,0l-0.2,0.1C26.6,18.5,26.2,18.7,25.9,18.7z
	 M23.7,15.9l1.7,1.7c0.2,0.2,0.6,0.2,0.8,0l0.2-0.2c0.1-0.1,0.2-0.3,0.2-0.4c0-0.2-0.1-0.3-0.2-0.4l-3.5-3.5c-0.2-0.2-0.6-0.2-0.8,0
	l-0.2,0.1c-0.1,0.1-0.2,0.3-0.2,0.4c0,0.2,0.1,0.3,0.2,0.4L23.7,15.9C23.7,15.8,23.7,15.8,23.7,15.9L23.7,15.9L23.7,15.9z"/>
</svg>
