<?xml version="1.0" encoding="utf-8"?>
<!-- Generator: Adobe Illustrator 23.0.4, SVG Export Plug-In . SVG Version: 6.00 Build 0)  -->
<svg version="1.1" id="Layer_1" xmlns="http://www.w3.org/2000/svg" xmlns:xlink="http://www.w3.org/1999/xlink" x="0px" y="0px"
	 viewBox="0 0 40 40" style="enable-background:new 0 0 40 40;" xml:space="preserve">
<style type="text/css">
	.st0{fill:#FFFFFF;}
	.st1{fill:none;stroke:#FFFFFF;stroke-width:0.5089;stroke-miterlimit:10;}
	.st2{fill:#182E49;}
	.st3{fill:#FCFCFC;}
	.st4{fill:#373737;}
	.st5{fill:#FFFFFF;stroke:#FFFFFF;stroke-width:0.4241;stroke-linecap:round;stroke-miterlimit:10;}
</style>
<g>
	<path class="st0" d="M13.4,17.9c0,0,3.1-0.3,3.9-1.5"/>
	<path class="st0" d="M26.6,17.9c0,0-3.1-0.3-3.9-1.5"/>
	<g>
		<g>
			<g>
				<path class="st1" d="M19.3,25.5c0,0,0.7,1.9,1.4,0"/>
				<path class="st2" d="M21.2,26.5c-0.3,0.4-0.6,0.7-1,1c-0.2,0.2-0.3,0.2-0.4,0c-0.3-0.3-0.6-0.7-0.9-1c-0.7,0.8-1.4,1.6-2.1,2.3
					c-0.9,0.9-1.8,1.7-2.9,2.2c-0.3,0.1-0.5,0.2-0.8,0.2c-1.2,0.2-1.8-0.4-2-1.5c-0.1-1.1,0.1-2.1,0.3-3.1c0.4-1.4,0.8-2.7,1.5-3.9
					c0.8-1.5,1.5-3.1,2.7-4.4c0,0,0.6-0.8,1.1-0.9c0,0,0.2-0.1,0.4-0.2c0.1,0,0.2-0.1,0.2-0.1c0.1,0,0.1,0,0.2-0.1
					c0.1,0,0.1-0.1,0.2-0.1c0-0.1,0-0.1-0.1-0.2c-0.1-0.2-0.4-0.2-0.4-0.2c-1.1,0.7-2.3,1.1-3.5,1.4c-0.2,0.1-0.5,0.1-0.7-0.1
					c0-0.1,0-0.2,0-0.3c0.1-0.1,0.3-0.2,0.4-0.2c0.9-0.3,1.8-0.6,2.7-0.9c0.2-0.1,0.4-0.2,0.5-0.3c0.4-0.3,0.7-0.3,1.1,0
					c0.6,0.4,0.9,1,1.2,1.7c0.4,0.8,0.7,1.7,1.1,2.5c0.1-0.2,0.2-0.4,0.2-0.6c0.3-1,0.8-2,1.4-2.9c0.2-0.3,0.4-0.5,0.7-0.7
					c0.3-0.3,0.7-0.2,1,0c0.6,0.5,1.4,0.7,2.1,0.9c0.4,0.1,0.8,0.2,1.2,0.3c0.2,0.1,0.4,0.1,0.3,0.4c-0.1,0.2-0.3,0.3-0.5,0.2
					c-1.3-0.3-2.6-0.6-3.7-1.4c-0.1,0.1-0.2,0.3-0.3,0.4c0,0,0,0,0,0c0,0.1,0,0.2,0,0.2c0,0,0.1,0,0.3,0.1c0,0,0.1,0,0.1,0
					c0,0,0.2-0.1,0.6,0.2c0.6,0.3,1,0.8,1.4,1.3c0.8,1.1,1.4,2.2,2.1,3.4c0.8,1.4,1.3,2.9,1.8,4.4c0.3,1.1,0.5,2.1,0.3,3.2
					c-0.1,0.3-0.2,0.7-0.4,1c-0.4,0.6-1.1,0.7-1.9,0.4c-1-0.3-1.9-1-2.7-1.7c-0.9-0.9-1.7-1.8-2.6-2.7
					C21.3,26.7,21.3,26.6,21.2,26.5z M21.7,26c1,1.3,2.1,2.5,3.4,3.5c0.5,0.4,1.1,0.7,1.7,1c0.8,0.3,1.3,0,1.4-0.8
					c0.1-0.9,0-1.7-0.2-2.6c-0.3-1.3-0.8-2.6-1.4-3.8c-0.7-1.6-1.5-3.1-2.6-4.5c-0.3-0.3-0.6-0.6-0.9-0.9c-0.2-0.2-0.4-0.1-0.5,0.1
					c-0.1,0.3-0.1,0.5-0.1,0.8c0.1,0.4,0.3,0.8,0.5,1.2c0.7,1.3,0.7,2.7,0,4C22.6,24.7,22.2,25.3,21.7,26z M18.3,26
					c-0.4-0.6-0.8-1.1-1.1-1.6c-0.7-1.2-0.9-2.5-0.4-3.8c0.2-0.4,0.4-0.8,0.5-1.2c0.2-0.4,0.3-0.8,0.1-1.2c-0.1-0.3-0.2-0.3-0.5-0.1
					c-0.3,0.3-0.7,0.6-0.9,0.9c-1.4,1.7-2.3,3.6-3.1,5.6c-0.5,1.2-0.9,2.4-1.1,3.7c-0.1,0.7-0.2,1.4,0.1,2c0.1,0.4,0.4,0.6,0.8,0.5
					c0.4-0.1,0.8-0.2,1.1-0.4C15.6,29.1,17,27.6,18.3,26z M18.2,17.9C18.2,17.9,18.2,17.9,18.2,17.9c0.1,0.6,0,1.1-0.2,1.5
					c-0.1,0.3-0.3,0.7-0.5,1c-0.7,1.6-0.2,3.7,1.1,4.9c0.7-0.9,1-1.9,0.9-3.1c-0.1-1.2-0.4-2.3-0.9-3.4
					C18.6,18.6,18.4,18.2,18.2,17.9z M21.7,18.1C21.7,18.1,21.7,18.1,21.7,18.1c-0.1,0-0.1,0-0.1,0.1c-0.7,1.6-1.3,3.2-1.2,5
					c0,0.8,0.4,1.5,0.9,2.2c0.3-0.5,0.6-0.9,0.9-1.3c0.7-1.2,0.8-2.4,0.2-3.7C22,19.7,21.6,19,21.7,18.1z M19.2,26
					c0.2,0.2,0.5,0.4,0.7,0.6c0.1,0.1,0.2,0.1,0.3,0c0.2-0.2,0.5-0.4,0.7-0.6c-0.3-0.5-0.6-1-0.9-1.4C19.7,25.1,19.5,25.5,19.2,26z"
					/>
				<path class="st3" d="M21.7,26c0.4-0.7,0.9-1.3,1.3-2c0.7-1.3,0.6-2.6,0-4c-0.2-0.4-0.4-0.8-0.5-1.2c-0.1-0.2,0-0.5,0.1-0.8
					c0.1-0.3,0.3-0.3,0.5-0.1c0.3,0.3,0.6,0.5,0.9,0.9c1.1,1.4,1.9,2.9,2.6,4.5c0.6,1.2,1.1,2.5,1.4,3.8c0.2,0.9,0.4,1.7,0.2,2.6
					c-0.1,0.9-0.6,1.2-1.4,0.8c-0.6-0.3-1.2-0.6-1.7-1C23.8,28.5,22.7,27.3,21.7,26z"/>
				<path class="st4" d="M23,18.2"/>
				<path class="st4" d="M22.5,17.2"/>
				<path class="st5" d="M22.6,14.2c0,0.4-0.5,0.8-1,0.8c-0.1,0-0.3-0.1-0.3-0.2c0-0.1,0.1-0.2,0.2-0.2c0.2-0.1,0.5-0.2,0.4-0.4
					c0-0.2-0.2-0.4-0.4-0.5c-0.1,0-0.2-0.1-0.3-0.1c-0.3-0.1-0.6-0.3-0.9-0.4c-0.2-0.1-0.4-0.1-0.6,0c-0.3,0.2-0.7,0.3-1,0.4
					c-0.2,0.1-0.4,0.2-0.6,0.3c-0.2,0.2-0.1,0.5,0.2,0.6c0,0,0.1,0,0.1,0c0.2,0,0.3,0.1,0.2,0.3c-0.1,0.1-0.2,0.2-0.4,0.2
					c-0.8-0.1-1.2-0.8-0.6-1.4c0.2-0.2,0.5-0.3,0.9-0.4c0.5-0.2,0.9-0.4,1.1-0.8c0.1-0.1,0.2-0.2,0.3-0.2c0.1,0,0.3,0.1,0.3,0.1
					c0.3,0.4,0.6,0.6,1.1,0.8c0.4,0.1,0.8,0.3,1,0.7C22.6,13.9,22.6,14,22.6,14.2z"/>
				<path class="st2" d="M23.1,14.2c0,0.5-0.6,1.2-1.2,1.1c-0.1,0-0.3-0.1-0.4-0.3c0-0.1,0.1-0.3,0.2-0.3c0.3-0.1,0.5-0.2,0.5-0.6
					c0-0.4-0.2-0.6-0.5-0.7c-0.1-0.1-0.2-0.1-0.3-0.2c-0.4-0.2-0.8-0.4-1.1-0.6c-0.3-0.2-0.4-0.2-0.7,0c-0.4,0.2-0.8,0.4-1.1,0.6
					c-0.2,0.1-0.5,0.3-0.7,0.5c-0.3,0.3-0.2,0.7,0.2,0.9c0,0,0.1,0,0.1,0c0.2,0.1,0.3,0.2,0.3,0.4c-0.1,0.2-0.3,0.3-0.5,0.2
					c-1-0.2-1.4-1.2-0.7-2c0.3-0.3,0.6-0.5,1-0.7c0.6-0.2,1-0.6,1.3-1.1c0.1-0.1,0.3-0.2,0.4-0.2c0.1,0,0.3,0.1,0.4,0.2
					c0.3,0.6,0.8,0.9,1.3,1.1c0.5,0.2,1,0.5,1.2,1C23,13.8,23,14,23.1,14.2z"/>
				<path class="st0" d="M16,16c-0.5,0-0.8-0.1-1-0.5c-0.2-0.4-0.4-0.9-0.4-1.4c-0.1-1.6-0.8-3-1.8-4.2c-0.1-0.1-0.3-0.2-0.1-0.4
					c0.2-0.2,0.4-0.2,0.6-0.1c0,0,0.1,0.1,0.1,0.1c0.9,1.1,1.7,2.2,1.9,3.6c0.1,0.5,0.1,1.1,0.2,1.6c0.1,0.3,0.3,0.6,0.4,0.9
					C15.9,15.8,15.9,15.9,16,16z"/>
				<path class="st2" d="M16.3,16c-0.5,0-0.8-0.1-1-0.5c-0.2-0.4-0.4-0.9-0.4-1.4c-0.1-1.7-0.8-3.1-1.8-4.4C13,9.6,12.8,9.6,13,9.4
					c0.2-0.2,0.4-0.2,0.6-0.1c0,0,0.1,0.1,0.1,0.1c0.9,1.1,1.6,2.3,1.9,3.7c0.1,0.5,0.1,1.1,0.2,1.6c0.1,0.3,0.3,0.6,0.4,1
					C16.3,15.8,16.3,15.9,16.3,16z"/>
				<path class="st0" d="M24.1,16.1c0.1-0.3,0.2-0.5,0.3-0.7c0.3-0.5,0.4-1,0.4-1.6c0.1-1.6,0.9-3,1.9-4.2c0.2-0.2,0.4-0.2,0.6-0.1
					c0.2,0.2,0.1,0.3,0,0.5c-0.7,0.9-1.4,1.8-1.6,3c-0.1,0.4-0.1,0.9-0.2,1.3c-0.1,0.5-0.2,1-0.5,1.4C24.8,16,24.5,16.1,24.1,16.1z"
					/>
				<path class="st2" d="M23.6,16c0.1-0.3,0.2-0.5,0.3-0.8c0.3-0.5,0.4-1,0.4-1.6c0.1-1.7,0.9-3.1,1.9-4.3c0.2-0.2,0.4-0.2,0.6-0.1
					c0.2,0.2,0.1,0.4,0,0.5c-0.7,0.9-1.4,1.9-1.6,3.1c-0.1,0.4-0.1,0.9-0.2,1.3c-0.1,0.5-0.2,1-0.5,1.4C24.4,15.9,24.1,16.1,23.6,16
					z"/>
			</g>
			<path class="st3" d="M17,17.8c0,0,0.7-0.5,1-0.4s0.2,0.2,0.5,0.8L17,17.8z"/>
			<path class="st3" d="M17,17.8C17,17.8,17.1,17.8,17,17.8C16.9,17.9,17.1,17.9,17,17.8C17.1,17.9,17.1,17.9,17,17.8L17,17.8z"/>
			<path class="st0" d="M18.9,25.2c-0.6,0.9-2.1,3-3.9,4.3c-0.3,0.3-0.7,0.5-1.1,0.7c-0.3,0.2-0.8,0.3-1.2,0.4
				c-0.4,0.1-0.6-0.1-0.8-0.5c-0.3-0.7-0.2-1.4-0.1-2c0.2-1.3,0.5-2.6,1.1-3.7c0.9-2,1.8-4,3.1-5.7c0.3-0.4,0.6-0.7,0.9-0.9
				c0.1-0.1,0.2-0.1,0.2-0.1l0,0l0,0l0,0c0,0,0.8-0.6,1-0.3c0.2,0.3,0.2,0.4,0.5,1.1s0.9,2.2,1,3.6C19.8,23.4,19.7,23.9,18.9,25.2z"
				/>
			<path class="st0" d="M21.1,25.2c0.6,0.9,2.1,3,3.9,4.3c0.3,0.3,0.7,0.5,1.1,0.7c0.3,0.2,0.8,0.3,1.2,0.4c0.4,0.1,0.6-0.1,0.8-0.5
				c0.3-0.7,0.2-1.4,0.1-2c-0.2-1.3-0.5-2.6-1.1-3.7c-0.9-2-1.8-4-3.1-5.7c-0.3-0.4-0.6-0.7-0.9-0.9c-0.1-0.1-0.2-0.1-0.2-0.1l0,0
				l0,0l0,0c0,0-0.8-0.6-1-0.3c-0.2,0.3-0.2,0.4-0.5,1.1c-0.3,0.7-0.9,2.2-1,3.6C20.2,23.4,20.3,23.9,21.1,25.2z"/>
			<path class="st2" d="M16.4,18.3L16,17.8c0.4-0.4,1.4-1.2,1.9-1.2v0.6C17.7,17.2,17,17.7,16.4,18.3z"/>
			<path class="st2" d="M23.7,18.3l0.4-0.4c-0.4-0.4-1.4-1.2-1.9-1.2v0.6C22.4,17.3,23.1,17.8,23.7,18.3z"/>
		</g>
		<polygon class="st0" points="22.7,13.9 22.7,13.9 22.7,13.9 		"/>
	</g>
</g>
</svg>
