<?xml version="1.0" encoding="utf-8"?>
<!-- Generator: Adobe Illustrator 18.1.1, SVG Export Plug-In . SVG Version: 6.00 Build 0)  -->
<!DOCTYPE svg PUBLIC "-//W3C//DTD SVG 1.1//EN" "http://www.w3.org/Graphics/SVG/1.1/DTD/svg11.dtd">
<svg version="1.1" id="Capa_1" xmlns="http://www.w3.org/2000/svg" xmlns:xlink="http://www.w3.org/1999/xlink" x="0px" y="0px"
	 viewBox="0 166.5 612 459" enable-background="new 0 166.5 612 459" xml:space="preserve">
<g>
	<g>
		<path d="M609,387.8c-2.9-3.4-71.9-83.9-167-133.2c-6.2-3.2-13.9-0.8-17.2,5.5c-3.2,6.2-0.8,13.9,5.5,17.2
			c73.3,37.9,131.8,97.2,151.9,118.8c-30.4,32.9-150,153-276.1,153c-42.8,0-85.9-10.3-128.2-30.7c-6.3-3.1-13.9-0.4-17,5.9
			c-3.1,6.3-0.4,13.9,5.9,17c45.8,22.1,92.6,33.3,139.3,33.3c157.1,0,297.1-163.3,303-170.3C613,399.5,613,392.5,609,387.8z"/>
	</g>
</g>
<g>
	<g>
		<path d="M389.7,232.2c-29-9.8-57.2-14.7-83.7-14.7C148.9,217.5,8.9,380.8,3,387.8c-3.7,4.4-4,10.8-0.7,15.5
			c1.8,2.5,43.9,62.4,117,110.9c2.2,1.5,4.6,2.1,7,2.1c4.1,0,8.2-2,10.6-5.7c3.9-5.8,2.3-13.8-3.6-17.6
			C79.7,457.3,43,414.2,29.2,396.7C58.6,364.8,179,243,306,243c23.7,0,49.2,4.5,75.5,13.3c6.7,2.4,13.9-1.3,16.1-8
			C399.9,241.6,396.3,234.4,389.7,232.2z"/>
	</g>
</g>
<path d="M306.2,294c-56.3,0-102,45.7-102,102s45.7,102,102,102s102-45.7,102-102S362.5,294,306.2,294z M306.2,473
	c-42.5,0-77-34.5-77-77s34.5-77,77-77s77,34.5,77,77S348.7,473,306.2,473z"/>
<g display="none">
	<g display="inline">
		<g>
			<path d="M378.1,323.9c-5-5-13.1-5-18,0c-5,5-5,13.1,0,18c14.4,14.4,22.4,33.6,22.4,54.1c0,42.2-34.3,76.5-76.5,76.5
				c-20.5,0-39.7-8-54.1-22.4c-5-5-13.1-5-18,0c-5,4.9-5,13.1,0,18c19.2,19.3,44.9,29.9,72.1,29.9c56.3,0,102-45.7,102-102
				C408,368.7,397.4,343.1,378.1,323.9z"/>
		</g>
	</g>
	<g display="inline">
		<g>
			<path d="M323.8,295.7c-5.8-1-11.7-1.8-17.8-1.8c-56.3,0-102,45.7-102,102c0,6.1,0.7,12,1.8,17.8c1.1,6.2,6.5,10.5,12.5,10.5
				c0.7,0,1.5-0.1,2.2-0.2c6.9-1.2,11.6-7.9,10.3-14.8c-0.8-4.3-1.4-8.7-1.4-13.3c0-42.2,34.3-76.5,76.5-76.5c4.6,0,9,0.6,13.3,1.4
				c6.8,1.4,13.5-3.4,14.8-10.3C335.3,303.6,330.7,297,323.8,295.7z"/>
		</g>
	</g>
	<g display="inline">
		<g>
			<path d="M609,387.8c-2.9-3.4-71.9-83.9-167-133.2c-6.2-3.2-13.9-0.8-17.2,5.5c-3.2,6.2-0.8,13.9,5.5,17.2
				c73.3,37.9,131.8,97.2,151.9,118.8c-30.4,32.9-150,153-276.1,153c-42.8,0-85.9-10.3-128.2-30.7c-6.3-3.1-13.9-0.4-17,5.9
				c-3.1,6.3-0.4,13.9,5.9,17c45.8,22.1,92.6,33.3,139.3,33.3c157.1,0,297.1-163.3,303-170.3C613,399.5,613,392.5,609,387.8z"/>
		</g>
	</g>
	<g display="inline">
		<g>
			<path d="M389.7,232.2c-29-9.8-57.2-14.7-83.7-14.7C148.9,217.5,8.9,380.8,3,387.8c-3.7,4.4-4,10.8-0.7,15.5
				c1.8,2.5,43.9,62.4,117,110.9c2.2,1.5,4.6,2.1,7,2.1c4.1,0,8.2-2,10.6-5.7c3.9-5.8,2.3-13.8-3.6-17.6
				C79.7,457.3,43,414.2,29.2,396.7C58.6,364.8,179,243,306,243c23.7,0,49.2,4.5,75.5,13.3c6.7,2.4,13.9-1.3,16.1-8
				C399.9,241.6,396.3,234.4,389.7,232.2z"/>
		</g>
	</g>
	<g display="inline">
		<g>
			<path d="M531.8,170.2c-5-5-13.1-5-18,0L80.2,603.7c-5,5-5,13.1,0,18c2.5,2.5,5.8,3.7,9,3.7c3.3,0,6.5-1.2,9-3.7l433.5-433.5
				C536.7,183.3,536.7,175.2,531.8,170.2z"/>
		</g>
	</g>
</g>
</svg>
