<svg xmlns="http://www.w3.org/2000/svg" width="115" height="102" viewBox="0 0 115 102">
  <metadata><?xpacket begin="﻿" id="W5M0MpCehiHzreSzNTczkc9d"?>
<x:xmpmeta xmlns:x="adobe:ns:meta/" x:xmptk="Adobe XMP Core 5.6-c138 79.159824, 2016/09/14-01:09:01        ">
   <rdf:RDF xmlns:rdf="http://www.w3.org/1999/02/22-rdf-syntax-ns#">
      <rdf:Description rdf:about=""/>
   </rdf:RDF>
</x:xmpmeta>
                                                                                                    
                                                                                                    
                                                                                                    
                                                                                                    
                                                                                                    
                                                                                                    
                                                                                                    
                                                                                                    
                                                                                                    
                                                                                                    
                                                                                                    
                                                                                                    
                                                                                                    
                                                                                                    
                                                                                                    
                                                                                                    
                                                                                                    
                                                                                                    
                                                                                                    
                                                                                                    
                           
<?xpacket end="w"?></metadata>
<defs>
    <style>
      .cls-1, .cls-2 {
        fill: #fff;
        fill-rule: evenodd;
      }

      .cls-2 {
        stroke: #0b1521;
        stroke-linejoin: round;
        stroke-width: 2px;
      }
    </style>
  </defs>
  <path id="Forma_1" data-name="Forma 1" class="cls-1" d="M57.495,71.206a10.377,10.377,0,1,0,10.5,10.376A10.441,10.441,0,0,0,57.495,71.206Zm56.24-36.268a73.875,73.875,0,0,0-112.481,0A5.141,5.141,0,0,0,1.9,42.244a5.288,5.288,0,0,0,7.393-.633,63.3,63.3,0,0,1,96.409,0,5.291,5.291,0,0,0,7.394.633A5.139,5.139,0,0,0,113.735,34.937Zm-56.24-5.224a52.644,52.644,0,0,0-40.17,18.548,5.14,5.14,0,0,0,.644,7.306,5.288,5.288,0,0,0,7.393-.634,42.2,42.2,0,0,1,64.272,0,5.285,5.285,0,0,0,7.391.634,5.141,5.141,0,0,0,.642-7.306A52.648,52.648,0,0,0,57.495,29.713Zm0,20.747a31.575,31.575,0,0,0-24.1,11.129,5.145,5.145,0,0,0,.644,7.308,5.3,5.3,0,0,0,7.394-.635,21.086,21.086,0,0,1,32.132,0,5.3,5.3,0,0,0,7.394.635,5.147,5.147,0,0,0,.645-7.308A31.581,31.581,0,0,0,57.495,50.46Z"/>
  <path class="cls-2" d="M14.5,9.673l8.751-6.99,60.8,87.631L75.3,97.3Z"/>
</svg>
